<svg width="166" height="44" viewBox="0 0 166 44" fill="none" xmlns="http://www.w3.org/2000/svg">
<path d="M35.2961 43.4981H8.20693C3.75527 43.4981 0.147461 39.9264 0.147461 35.5192V8.701C0.147461 4.29384 3.75527 0.722107 8.20693 0.722107H35.2961C39.7478 0.722107 43.3556 4.29384 43.3556 8.701V35.5192C43.3556 39.9264 39.7478 43.4981 35.2961 43.4981Z" fill="#292F36"/>
<path d="M29.5356 22.5037C30.3061 23.4602 30.6975 24.574 30.6975 25.8332C30.6975 27.6857 30.0737 29.1386 28.8263 30.1677C27.5789 31.1969 25.7933 31.7296 23.4696 31.7296H13.3188V10.1176H23.225C25.4509 10.1176 27.163 10.6019 28.3738 11.5584C29.5846 12.5149 30.196 13.8831 30.196 15.6508C30.196 16.9584 29.8414 18.036 29.1443 18.9077C28.4472 19.7795 27.53 20.3364 26.3926 20.6028C27.7256 20.9176 28.7651 21.5472 29.5356 22.5037ZM18.5899 18.9561H22.051C23.8854 18.9561 24.8027 18.1813 24.8027 16.6315C24.8027 15.0817 23.861 14.3068 21.9898 14.3068H18.5899V18.9561ZM25.2919 25.1068C25.2919 24.3319 25.0351 23.7265 24.5214 23.2907C24.0078 22.8548 23.2739 22.6368 22.3323 22.6368H18.6021V27.492H22.3689C24.3135 27.4799 25.2919 26.6929 25.2919 25.1068Z" fill="white"/>
<path d="M68.3901 31.7296L63.6693 23.5691H62.4708V31.7296H57.1875V10.1176H66.2009C67.9253 10.1176 69.3929 10.4082 70.5792 11.0015C71.7777 11.5947 72.6705 12.4059 73.2698 13.4351C73.869 14.4642 74.1626 15.6387 74.1626 16.9705C74.1626 18.5445 73.7223 19.8763 72.8539 20.9781C71.9734 22.0799 70.7137 22.8306 69.0382 23.2422L74.2237 31.7417H68.3901V31.7296ZM62.4708 19.9974H65.7362C66.7879 19.9974 67.5584 19.7673 68.0476 19.3073C68.5368 18.8472 68.7936 18.1691 68.7936 17.2732C68.7936 16.4136 68.5368 15.7476 68.0354 15.2512C67.534 14.7669 66.7635 14.5127 65.7362 14.5127H62.4708V19.9974Z" fill="#292F36"/>
<path d="M98.0599 27.7947H89.8782L88.5206 31.7418H82.9683L90.9666 10.2872H97.0448L105.043 31.7418H99.4297L98.0599 27.7947ZM96.7024 23.8113L93.9874 15.8688L91.2357 23.8113H96.7024Z" fill="#292F36"/>
<path d="M134.187 31.7296H128.903L120.073 18.4597V31.7296H114.79V10.1176H120.073L128.903 23.5086V10.1176H134.187V31.7296Z" fill="#292F36"/>
<path d="M163.808 26.5233C162.89 28.1579 161.569 29.4413 159.857 30.3614C158.133 31.2816 156.115 31.7417 153.791 31.7417H145.548V10.1297H153.791C156.139 10.1297 158.17 10.5777 159.869 11.4736C161.582 12.3696 162.89 13.6288 163.808 15.2633C164.725 16.8978 165.177 18.7624 165.177 20.8933C165.177 23 164.713 24.8767 163.808 26.5233ZM158.121 25.4336C159.258 24.3561 159.833 22.8305 159.833 20.8812C159.833 18.9198 159.258 17.4063 158.121 16.3288C156.983 15.2512 155.381 14.7064 153.314 14.7064H150.819V27.0561H153.314C155.381 27.0561 156.983 26.5233 158.121 25.4336Z" fill="#292F36"/>
</svg>
