<svg width="119" height="48" viewBox="0 0 119 48" fill="none" xmlns="http://www.w3.org/2000/svg">
<path d="M0.524902 29.7343V0.528625H17.8995V29.72H0.524902V29.7343ZM15.7944 22.9396L16.2413 19.7136L14.6264 19.5566L14.1362 22.0404C13.1269 22.54 11.8869 22.7826 10.4017 22.7826C8.38312 22.7826 6.78263 22.1545 5.61471 20.8841C4.43237 19.6137 3.85562 17.9436 3.85562 15.8595C3.85562 13.8325 4.43238 12.1624 5.57146 10.8491C6.71053 9.53586 8.21012 8.87923 10.0701 8.87923C11.0218 8.87923 11.8292 8.99342 12.478 9.20754C13.1269 9.42166 13.718 9.70715 14.2804 10.0783L14.7562 12.5335L16.3999 12.3765L15.9241 9.15045C15.232 8.56519 14.4101 8.09413 13.4585 7.72299C12.5069 7.36613 11.3246 7.18056 9.92594 7.18056C8.26779 7.18056 6.84033 7.58025 5.64358 8.39389C4.44682 9.20754 3.5096 10.2781 2.84634 11.6057C2.18308 12.9475 1.85144 14.3892 1.85144 15.9309C1.85144 18.3718 2.61563 20.4131 4.14402 22.0404C5.6724 23.6677 7.66218 24.4813 10.1278 24.4813C12.5501 24.4813 14.439 23.9674 15.7944 22.9396Z" fill="#292F36"/>
<path d="M23.7969 29.7343V0.528625H31.2658V29.72H23.7969V29.7343ZM24.5899 24.2244H30.4871V22.7541H28.4541V6.45256H24.5611V7.92284H26.6229V22.7541H24.5899V24.2244Z" fill="#292F36"/>
<path d="M37.1631 29.7343V0.528625H50.2841V29.72H37.1631V29.7343ZM39.5422 13.6041L39.1241 16.2592L40.638 16.4447L41.085 14.4606C41.7338 14.1465 42.4692 13.9895 43.3343 13.9895C44.3724 13.9895 45.079 14.2465 45.4395 14.7603C45.7999 15.2742 45.9729 15.9451 45.9729 16.773V17.8008C45.6557 17.7723 45.3241 17.7437 44.9636 17.7294C44.6032 17.7152 44.2571 17.7009 43.9111 17.7009C42.6134 17.7009 41.3733 17.9293 40.2198 18.3861C39.0664 18.8429 38.4896 19.7992 38.4896 21.241C38.4896 22.4686 38.8789 23.3108 39.672 23.7676C40.465 24.2386 41.2436 24.467 42.0078 24.467C42.945 24.467 43.7524 24.2244 44.4157 23.739C45.079 23.2537 45.5981 22.7113 45.9729 22.0832V22.1403C46.0018 23.6962 46.7083 24.467 48.0925 24.467C48.626 24.467 49.1306 24.3386 49.6065 24.0816L49.5776 22.8968C49.3469 22.9967 49.0874 23.0538 48.799 23.0538C48.1357 23.0538 47.8041 22.6399 47.8041 21.812V16.3448C47.8041 13.7754 46.4199 12.4907 43.6515 12.4907C42.8873 12.4907 42.1664 12.5763 41.4887 12.7476C40.7966 12.9332 40.1478 13.2187 39.5422 13.6041ZM45.9585 19.9134C45.8864 20.8556 45.4971 21.6121 44.7906 22.1545C44.0841 22.7113 43.3343 22.9825 42.5269 22.9825C42.0222 22.9825 41.532 22.8397 41.0706 22.5685C40.5948 22.2973 40.364 21.7834 40.364 21.0411C40.364 20.1418 40.7245 19.5709 41.4166 19.2996C42.1231 19.0284 42.9017 18.9 43.7813 18.9C44.1706 18.9 44.5455 18.9142 44.9059 18.9571C45.2664 18.9856 45.6269 19.0142 45.9441 19.0284V19.9134H45.9585Z" fill="#292F36"/>
<path d="M56.1958 29.7343V0.528625H68.1201V29.72H56.1958V29.7343ZM66.8656 20.8984C66.8656 19.9848 66.6205 19.3139 66.1303 18.8714C65.64 18.4289 65.0489 18.1291 64.3279 17.9578C63.607 17.7865 62.9005 17.6438 62.194 17.5296C61.4875 17.4154 60.8819 17.2298 60.3917 16.9872C59.9014 16.7445 59.6563 16.3163 59.6563 15.7025C59.6563 15.1172 59.887 14.689 60.3628 14.4035C60.8386 14.118 61.4298 13.9895 62.1651 13.9895C63.0158 13.9895 63.8089 14.1751 64.5443 14.5605L64.8326 16.4162L66.3466 16.2306L66.0582 13.547C65.568 13.2472 64.9768 13.0046 64.2703 12.8047C63.5638 12.6049 62.814 12.4907 62.0065 12.4907C60.9396 12.4907 59.9591 12.7476 59.0507 13.2472C58.1423 13.7468 57.6954 14.6033 57.6954 15.8309C57.6954 16.7302 57.9404 17.3869 58.4307 17.8008C58.9209 18.229 59.5265 18.5145 60.2619 18.6858C60.9972 18.8571 61.7182 18.9999 62.4391 19.1283C63.16 19.2425 63.7656 19.4424 64.2559 19.6993C64.7461 19.9563 64.9912 20.3988 64.9912 21.0411C64.9912 21.6978 64.674 22.1831 64.0395 22.4971C63.4051 22.8112 62.6842 22.9682 61.8623 22.9682C60.9395 22.9682 60.0744 22.7826 59.2814 22.3972L59.3535 20.8698L57.8972 20.7128L57.5367 23.3251C58.0414 23.6534 58.7046 23.9246 59.5121 24.1387C60.3195 24.3528 61.127 24.467 61.9489 24.467C63.3475 24.467 64.5154 24.153 65.4526 23.5106C66.3899 22.8968 66.8656 22.0118 66.8656 20.8984Z" fill="#292F36"/>
<path d="M74.0171 29.7343V0.528625H85.9413V29.72H74.0171V29.7343ZM84.6869 20.8984C84.6869 19.9848 84.4418 19.3139 83.9515 18.8714C83.4613 18.4289 82.8701 18.1291 82.1492 17.9578C81.4282 17.7865 80.7218 17.6438 80.0152 17.5296C79.3087 17.4154 78.7031 17.2298 78.2129 16.9872C77.7227 16.7445 77.4775 16.3163 77.4775 15.7025C77.4775 15.1172 77.7082 14.689 78.184 14.4035C78.6599 14.118 79.251 13.9895 79.9864 13.9895C80.8371 13.9895 81.6301 14.1751 82.3655 14.5605L82.6539 16.4162L84.1678 16.2306L83.8794 13.547C83.3892 13.2472 82.7981 13.0046 82.0915 12.8047C81.385 12.6049 80.6352 12.4907 79.8278 12.4907C78.7608 12.4907 77.7803 12.7476 76.872 13.2472C75.9636 13.7468 75.5166 14.6033 75.5166 15.8309C75.5166 16.7302 75.7617 17.3869 76.252 17.8008C76.7422 18.229 77.3478 18.5145 78.0832 18.6858C78.8185 18.8571 79.5394 18.9999 80.2603 19.1283C80.9813 19.2425 81.5869 19.4424 82.0771 19.6993C82.5673 19.9563 82.8125 20.3988 82.8125 21.0411C82.8125 21.6978 82.4953 22.1831 81.8609 22.4971C81.2265 22.8112 80.5055 22.9682 79.6836 22.9682C78.7608 22.9682 77.8957 22.7826 77.1026 22.3972L77.1748 20.8698L75.7185 20.7128L75.358 23.3251C75.8627 23.6534 76.5259 23.9246 77.3334 24.1387C78.1408 24.3528 78.9483 24.467 79.7701 24.467C81.1688 24.467 82.3367 24.153 83.2739 23.5106C84.2111 22.8968 84.6869 22.0118 84.6869 20.8984Z" fill="#292F36"/>
<path d="M91.8389 29.7343V0.528625H99.6971V29.72H91.8389V29.7343ZM92.9923 24.2244H98.8896V22.7541H96.8566V12.7334H92.9491V14.2036H95.0398V22.7541H93.0068V24.2244H92.9923ZM94.838 7.40895V9.76425H96.8278V7.40895H94.838Z" fill="#292F36"/>
<path d="M105.594 29.7343V0.528625H118.153V29.72H105.594V29.7343ZM117.028 20.356L115.457 20.0134C115.111 21.9547 114.058 22.9254 112.328 22.9254C111.174 22.9254 110.295 22.54 109.689 21.7691C109.084 20.9983 108.781 19.9134 108.781 18.5431C108.781 17.3012 109.055 16.2449 109.588 15.3599C110.122 14.4748 111.016 14.0466 112.256 14.0466C113.207 14.0466 114.044 14.2607 114.736 14.689L115.183 16.6303L116.697 16.4447L116.25 13.6755C115.659 13.233 115.039 12.9189 114.39 12.7476C113.741 12.5763 113.034 12.4907 112.27 12.4907C110.468 12.4907 109.098 13.1188 108.204 14.3749C107.296 15.6311 106.849 17.0585 106.849 18.643C106.849 20.4844 107.324 21.9262 108.291 22.9396C109.242 23.9674 110.525 24.4813 112.126 24.4813C113.726 24.4813 114.909 24.0388 115.659 23.168C116.408 22.283 116.87 21.3552 117.028 20.356Z" fill="#292F36"/>
<path d="M8.03714 45.6789C7.70551 46.2784 7.21526 46.7495 6.58084 47.0778C5.932 47.4061 5.1678 47.5774 4.27383 47.5774H1.69287V39.5266H4.27383C5.1678 39.5266 5.94642 39.6836 6.58084 40.0119C7.21526 40.3402 7.70551 40.797 8.03714 41.4108C8.36877 42.0246 8.52738 42.724 8.52738 43.552C8.52738 44.3656 8.36877 45.0793 8.03714 45.6789ZM6.60966 45.8359C7.17199 45.2935 7.44597 44.5369 7.44597 43.552C7.44597 42.567 7.17199 41.8105 6.60966 41.268C6.04733 40.7256 5.23988 40.4544 4.17289 40.4544H2.71663V46.6495H4.17289C5.23988 46.6495 6.04733 46.3783 6.60966 45.8359Z" fill="#292F36"/>
<path d="M13.8768 40.3687V43.1237H16.9624V43.9231H13.8768V46.7352H17.3085V47.5774H12.8242V39.5266H17.3085V40.3687H13.8768Z" fill="#292F36"/>
<path d="M26.4211 46.5497C26.2337 46.878 25.9597 47.1492 25.5848 47.3491C25.21 47.5489 24.7485 47.6631 24.1862 47.6631C23.6527 47.6631 23.1625 47.5632 22.7443 47.3776C22.3262 47.1778 21.9946 46.9208 21.7351 46.5782C21.4899 46.2357 21.3457 45.8502 21.3025 45.422H22.4271C22.456 45.6504 22.5281 45.8788 22.6578 46.0929C22.7876 46.307 22.9895 46.4926 23.2346 46.6353C23.4797 46.7781 23.7825 46.8495 24.143 46.8495C24.6044 46.8495 24.9649 46.7353 25.21 46.4783C25.4551 46.2214 25.5848 45.9216 25.5848 45.5362C25.5848 45.2079 25.4983 44.9367 25.3253 44.7368C25.1523 44.537 24.936 44.3657 24.6909 44.2515C24.4458 44.1373 24.0853 44.0088 23.6527 43.8661C23.1337 43.6948 22.73 43.5378 22.4127 43.395C22.0955 43.2523 21.836 43.0239 21.6197 42.7241C21.4034 42.4244 21.2881 42.0389 21.2881 41.5536C21.2881 41.1396 21.389 40.7685 21.5909 40.4402C21.7927 40.1262 22.0811 39.8692 22.4704 39.6979C22.8453 39.5266 23.3067 39.441 23.8114 39.441C24.6044 39.441 25.2532 39.6266 25.7146 40.012C26.1904 40.3974 26.45 40.8827 26.5365 41.4822H25.4118C25.3541 41.1682 25.1811 40.8827 24.9216 40.64C24.6476 40.3974 24.2872 40.2689 23.8258 40.2689C23.4076 40.2689 23.0616 40.3831 22.8165 40.5972C22.5569 40.8113 22.4416 41.1254 22.4416 41.5108C22.4416 41.8248 22.5281 42.0818 22.6867 42.2673C22.8597 42.4672 23.0616 42.6099 23.3067 42.7241C23.5518 42.8383 23.8978 42.9525 24.316 43.0953C24.8351 43.2666 25.2532 43.4236 25.5848 43.5806C25.902 43.7376 26.176 43.966 26.3923 44.2658C26.6086 44.5655 26.7239 44.9795 26.7239 45.4934C26.6951 45.8645 26.6086 46.2214 26.4211 46.5497Z" fill="#292F36"/>
<path d="M32.0443 39.5266V47.5774H30.9917V39.5266H32.0443Z" fill="#292F36"/>
<path d="M42.6854 40.1404C43.3342 40.6115 43.7668 41.2395 43.9831 42.0389H42.8728C42.6854 41.5536 42.3537 41.1539 41.9068 40.8684C41.4598 40.5686 40.9263 40.4259 40.3063 40.4259C39.7584 40.4259 39.2537 40.5544 38.8211 40.8113C38.3886 41.0682 38.0426 41.4251 37.783 41.8962C37.5379 42.3672 37.4081 42.9239 37.4081 43.5663C37.4081 44.2229 37.5379 44.7939 37.783 45.265C38.0281 45.736 38.3886 46.1072 38.8356 46.3641C39.2825 46.621 39.8016 46.7495 40.3928 46.7495C40.8975 46.7495 41.3444 46.6353 41.7626 46.4355C42.1807 46.2214 42.5123 45.9073 42.7863 45.5076C43.0602 45.1079 43.2044 44.6226 43.2621 44.0802H40.0612V43.3093H44.1416V44.2657C44.0695 44.9081 43.8677 45.4791 43.5361 46.0072C43.2044 46.5354 42.7575 46.9351 42.1951 47.2348C41.6328 47.5346 40.9984 47.6916 40.2774 47.6916C39.4988 47.6916 38.8067 47.5203 38.2011 47.1777C37.5955 46.8352 37.1341 46.3498 36.8025 45.7217C36.4709 45.1079 36.2979 44.3942 36.2979 43.5948C36.2979 42.7955 36.4709 42.0817 36.8025 41.4679C37.1341 40.8541 37.61 40.3545 38.2011 40.0119C38.7923 39.6693 39.4844 39.4838 40.263 39.4838C41.2435 39.4552 42.0365 39.6836 42.6854 40.1404Z" fill="#292F36"/>
<path d="M54.7824 47.5774H53.7299L49.5052 41.2109V47.5774H48.4526V39.5266H49.5052L53.7299 45.893V39.5266H54.7824V47.5774Z" fill="#292F36"/>
<path d="M69.9509 46.5497C69.7635 46.878 69.4895 47.1492 69.1146 47.3491C68.7397 47.5489 68.2784 47.6631 67.716 47.6631C67.1826 47.6631 66.6923 47.5632 66.2742 47.3776C65.856 47.1778 65.5244 46.9208 65.2648 46.5782C65.0197 46.2357 64.8756 45.8502 64.8323 45.422H65.9569C65.9858 45.6504 66.0579 45.8788 66.1877 46.0929C66.3174 46.307 66.5192 46.4926 66.7644 46.6353C67.0095 46.7781 67.3123 46.8495 67.6727 46.8495C68.1341 46.8495 68.4946 46.7353 68.7397 46.4783C68.9848 46.2214 69.1146 45.9216 69.1146 45.5362C69.1146 45.2079 69.0281 44.9367 68.8551 44.7368C68.6821 44.537 68.4658 44.3657 68.2207 44.2515C67.9756 44.1373 67.6151 44.0088 67.1826 43.8661C66.6635 43.6948 66.2597 43.5378 65.9425 43.395C65.6253 43.2523 65.3658 43.0239 65.1495 42.7241C64.9332 42.4244 64.8179 42.0389 64.8179 41.5536C64.8179 41.1396 64.9187 40.7685 65.1206 40.4402C65.3225 40.1262 65.6109 39.8692 66.0002 39.6979C66.3751 39.5266 66.8365 39.441 67.3411 39.441C68.1342 39.441 68.783 39.6266 69.2444 40.012C69.7202 40.3974 69.9798 40.8827 70.0663 41.4822H68.9416C68.8839 41.1682 68.7109 40.8827 68.4513 40.64C68.1774 40.3974 67.817 40.2689 67.3556 40.2689C66.9374 40.2689 66.5914 40.3831 66.3463 40.5972C66.0867 40.8113 65.9714 41.1254 65.9714 41.5108C65.9714 41.8248 66.0578 42.0818 66.2164 42.2673C66.3895 42.4672 66.5913 42.6099 66.8364 42.7241C67.0816 42.8383 67.4276 42.9525 67.8458 43.0953C68.3648 43.2666 68.783 43.4236 69.1146 43.5806C69.4318 43.7376 69.7058 43.966 69.9221 44.2658C70.1383 44.5655 70.2537 44.9795 70.2537 45.4934C70.2248 45.8645 70.1384 46.2214 69.9509 46.5497Z" fill="#292F36"/>
<path d="M79.5106 39.5266V40.3687H77.218V47.5774H76.151V40.3687H73.8584V39.5266H79.5106Z" fill="#292F36"/>
<path d="M84.4133 39.5266V44.3513C84.4133 45.1364 84.5863 45.7217 84.9468 46.1071C85.3073 46.4782 85.7831 46.6781 86.4175 46.6781C87.0375 46.6781 87.5134 46.4925 87.8594 46.1071C88.2055 45.7217 88.3785 45.1507 88.3785 44.3656V39.5408H89.4311V44.3656C89.4311 45.4648 89.1571 46.2927 88.6092 46.8351C88.0613 47.3918 87.3259 47.663 86.4031 47.663C85.4947 47.663 84.7594 47.3918 84.2115 46.8351C83.6636 46.2784 83.3896 45.4648 83.3896 44.3656V39.5408H84.4133V39.5266Z" fill="#292F36"/>
<path d="M100.288 45.6789C99.9564 46.2784 99.4662 46.7495 98.8317 47.0778C98.1829 47.4061 97.4187 47.5774 96.5248 47.5774H93.9438V39.5266H96.5248C97.4187 39.5266 98.1973 39.6836 98.8317 40.0119C99.4662 40.3402 99.9564 40.797 100.288 41.4108C100.62 42.0246 100.778 42.724 100.778 43.552C100.778 44.3656 100.62 45.0793 100.288 45.6789ZM98.875 45.8359C99.4374 45.2935 99.7113 44.5369 99.7113 43.552C99.7113 42.567 99.4374 41.8105 98.875 41.268C98.3127 40.7256 97.5052 40.4544 96.4383 40.4544H94.982V46.6495H96.4383C97.4908 46.6495 98.3127 46.3783 98.875 45.8359Z" fill="#292F36"/>
<path d="M106.142 39.5266V47.5774H105.089V39.5266H106.142Z" fill="#292F36"/>
<path d="M116.466 39.9549C117.071 40.3117 117.547 40.797 117.893 41.4251C118.239 42.0532 118.412 42.7669 118.412 43.552C118.412 44.3371 118.239 45.0509 117.893 45.6789C117.547 46.307 117.071 46.7924 116.466 47.1492C115.86 47.5061 115.182 47.6774 114.433 47.6774C113.683 47.6774 112.991 47.5061 112.385 47.1492C111.78 46.7924 111.289 46.307 110.943 45.6789C110.597 45.0509 110.424 44.3371 110.424 43.552C110.424 42.7669 110.597 42.0532 110.943 41.4251C111.289 40.797 111.765 40.3117 112.385 39.9549C113.005 39.598 113.683 39.4267 114.433 39.4267C115.182 39.4267 115.86 39.598 116.466 39.9549ZM112.919 40.7828C112.472 41.0397 112.126 41.3966 111.881 41.8819C111.636 42.353 111.506 42.9097 111.506 43.552C111.506 44.1801 111.636 44.7368 111.881 45.2222C112.126 45.7075 112.472 46.0644 112.919 46.3213C113.366 46.5782 113.856 46.7067 114.418 46.7067C114.966 46.7067 115.471 46.5782 115.918 46.3213C116.365 46.0644 116.711 45.6932 116.956 45.2222C117.201 44.7511 117.331 44.1944 117.331 43.5663C117.331 42.924 117.201 42.3673 116.956 41.8962C116.711 41.4251 116.365 41.054 115.918 40.7971C115.471 40.5401 114.981 40.4116 114.418 40.4116C113.87 40.3974 113.366 40.5258 112.919 40.7828Z" fill="#292F36"/>
</svg>
