<svg width="69" height="69" viewBox="0 0 69 69" fill="none" xmlns="http://www.w3.org/2000/svg">
<rect x="0.87146" y="0.914551" width="67.5857" height="67.5857" rx="16.2857" fill="#F563D3"/>
<path d="M18.0283 26.1706C18.0397 26.2346 18.049 26.2986 18.0528 26.3631C18.1011 27.1914 18.7273 33.8001 26.5998 41.8467C26.5998 41.8467 33.4003 48.777 40.5576 50.2342C40.5886 50.2406 40.619 50.2475 40.6499 50.256C41.0833 50.3739 44.7676 51.3051 46.6667 49.4005L49.3724 46.7434C49.3968 46.7194 49.4223 46.6959 49.4484 46.6735C49.7183 46.4415 51.5974 44.7055 49.7178 42.8596C47.8154 40.9912 45.4171 38.7133 45.1456 38.4552C45.1325 38.4429 45.12 38.4306 45.1075 38.4178C44.9604 38.2674 43.5625 36.9149 41.9251 38.1506C41.8778 38.1864 41.8333 38.2264 41.7909 38.268L39.1418 40.8766C38.5482 41.4392 37.6054 41.4318 37.0205 40.86L27.97 32.0059C27.3623 31.4112 27.378 30.44 28.0048 29.8645L30.1228 27.921C30.1228 27.921 32.4434 25.8111 29.9512 23.5321L26.2517 19.8989C26.2289 19.8765 26.2072 19.8536 26.1854 19.8296C25.9465 19.565 24.1733 17.7538 22.0928 19.7698C22.0292 19.8312 21.9602 19.8866 21.8869 19.9357C21.1809 20.4115 17.4706 23.0697 18.0283 26.1706Z" fill="white"/>
<path d="M42.9641 32.6431C43.5371 32.6428 44.0089 32.1758 43.9278 31.6086C43.8276 30.9082 43.6262 30.2241 43.3285 29.5783C42.8855 28.6174 42.2398 27.7639 41.4356 27.0763C40.6314 26.3887 39.6879 25.8834 38.6699 25.5951C37.9856 25.4013 37.2786 25.3087 36.5711 25.3185C35.9982 25.3265 35.6101 25.8651 35.6989 26.4312C35.7876 26.9973 36.3212 27.3734 36.8937 27.3975C37.3023 27.4146 37.7087 27.4795 38.1045 27.5916C38.8343 27.7983 39.5106 28.1605 40.0871 28.6534C40.6636 29.1463 41.1265 29.7582 41.444 30.447C41.6163 30.8205 41.7435 31.2119 41.824 31.6129C41.9367 32.1747 42.3911 32.6434 42.9641 32.6431Z" fill="#F9A1E5"/>
<path d="M47.2484 32.7607C47.9386 32.8148 48.5494 32.2978 48.5236 31.606C48.4767 30.3477 48.2113 29.1038 47.7361 27.9309C47.1035 26.3697 46.1166 24.9769 44.8532 23.8626C43.5899 22.7483 42.0848 21.943 40.4568 21.5103C39.2337 21.1853 37.9664 21.0772 36.7121 21.1878C36.0225 21.2486 35.5859 21.9193 35.7256 22.5973C35.8654 23.2753 36.5295 23.7016 37.2208 23.6648C38.091 23.6183 38.9657 23.7081 39.8128 23.9333C41.0652 24.2661 42.223 24.8856 43.1949 25.7427C44.1667 26.5999 44.9259 27.6713 45.4125 28.8723C45.7417 29.6848 45.94 30.5414 46.0026 31.4106C46.0523 32.1011 46.5582 32.7067 47.2484 32.7607Z" fill="#F9A1E5"/>
</svg>
