<svg width="51" height="52" viewBox="0 0 51 52" fill="none" xmlns="http://www.w3.org/2000/svg">
<mask id="mask0_119_2390" style="mask-type:alpha" maskUnits="userSpaceOnUse" x="7" y="7" width="37" height="36">
<path d="M22.6468 9.73098C23.5449 6.96705 27.4551 6.96705 28.3532 9.73098L30.5516 16.4969C30.9532 17.733 32.1051 18.5699 33.4047 18.5699L40.5189 18.5699C43.4251 18.5699 44.6334 22.2887 42.2822 23.9969L36.5268 28.1785C35.4753 28.9425 35.0353 30.2966 35.437 31.5326L37.6354 38.2986C38.5334 41.0625 35.37 43.3609 33.0188 41.6527L27.2634 37.4711C26.2119 36.7072 24.7881 36.7072 23.7366 37.4711L17.9812 41.6527C15.63 43.3609 12.4666 41.0625 13.3646 38.2986L15.563 31.5326C15.9647 30.2966 15.5247 28.9425 14.4732 28.1785L8.71775 23.9969C6.36661 22.2887 7.57494 18.5699 10.4811 18.5699L17.5953 18.5699C18.8949 18.5699 20.0468 17.733 20.4484 16.4969L22.6468 9.73098Z" fill="#FFC226"/>
</mask>
<g mask="url(#mask0_119_2390)">
<rect x="5" y="1.94983" width="20" height="46" fill="#FFC226"/>
</g>
</svg>
