<svg width="44" height="40" viewBox="0 0 44 40" fill="none" xmlns="http://www.w3.org/2000/svg">
<path d="M17.3029 3.69824C18.9016 -0.683358 25.0984 -0.683361 26.6971 3.69824L28.659 9.07523C29.379 11.0485 31.2555 12.3614 33.3561 12.3614H38.3547C43.3373 12.3614 45.2542 18.8527 41.0708 21.5594L38.0622 23.506C36.1037 24.7731 35.2816 27.2263 36.0812 29.4177L37.4582 33.1916C39.1024 37.6981 34.0725 41.7092 30.0449 39.1034L24.7161 35.6556C23.0633 34.5862 20.9367 34.5862 19.2839 35.6556L13.9551 39.1034C9.92752 41.7092 4.89762 37.6981 6.54185 33.1916L7.91881 29.4177C8.71838 27.2263 7.89635 24.7731 5.9378 23.506L2.92922 21.5594C-1.25415 18.8527 0.662688 12.3614 5.64532 12.3614H10.6439C12.7445 12.3614 14.621 11.0485 15.341 9.07524L17.3029 3.69824Z" fill="#FFC226"/>
</svg>
