<svg width="150" height="39" viewBox="0 0 150 39" fill="none" xmlns="http://www.w3.org/2000/svg">
<path d="M18.121 37.6101C17.221 37.6101 16.331 37.3501 15.451 36.8301C14.591 36.3301 13.491 35.5501 12.151 34.4901C11.151 33.6901 10.291 33.0401 9.57099 32.5401C8.87099 32.0601 8.10099 31.6501 7.26099 31.3101C6.44099 30.9701 5.60099 30.8001 4.74099 30.8001C4.44099 30.8001 4.21099 30.8101 4.05099 30.8301L8.52099 10.0401C7.18099 10.5801 6.14099 11.4101 5.40099 12.5301C4.68099 13.6301 4.32099 14.9801 4.32099 16.5801C4.32099 17.3201 4.39099 17.8401 4.53099 18.1401C4.67099 18.4201 4.74099 18.5801 4.74099 18.6201C3.66099 18.6201 2.85099 18.4001 2.31099 17.9601C1.79099 17.5001 1.53099 16.7501 1.53099 15.7101C1.53099 14.4301 2.05099 13.1901 3.09099 11.9901C4.15099 10.7701 5.50099 9.79011 7.14099 9.05011C8.78099 8.29011 10.421 7.91011 12.061 7.91011C12.341 7.91011 12.741 7.93011 13.261 7.97011L8.64099 29.5101C9.20099 29.6501 9.77099 29.8501 10.351 30.1101C10.951 30.3901 11.671 30.7601 12.511 31.2201C13.811 31.9201 14.921 32.4501 15.841 32.8101C16.761 33.1901 17.721 33.3801 18.721 33.3801C19.621 33.3801 20.461 33.2201 21.241 32.9001C21.081 34.3601 20.721 35.5101 20.161 36.3501C19.621 37.1901 18.941 37.6101 18.121 37.6101ZM17.0982 30.2301C15.6182 30.2301 14.4482 29.8501 13.5882 29.0901C12.7282 28.3301 12.2982 27.1301 12.2982 25.4901C12.2982 24.1301 12.5782 22.6201 13.1382 20.9601C13.6982 19.3001 14.5982 17.8701 15.8382 16.6701C17.0782 15.4501 18.6382 14.8401 20.5182 14.8401C23.0782 14.8401 24.3582 16.4401 24.3582 19.6401V19.6701C24.4182 19.6901 24.5282 19.7001 24.6882 19.7001C25.3482 19.7001 26.1082 19.5301 26.9682 19.1901C27.8282 18.8301 28.6082 18.4001 29.3082 17.9001L29.5782 18.7101C28.9982 19.3301 28.2382 19.8601 27.2982 20.3001C26.3782 20.7201 25.3682 21.0201 24.2682 21.2001C24.1082 23.0201 23.6982 24.6101 23.0382 25.9701C22.3782 27.3301 21.5282 28.3801 20.4882 29.1201C19.4482 29.8601 18.3182 30.2301 17.0982 30.2301ZM18.2982 27.5301C18.7782 27.5301 19.2582 27.2601 19.7382 26.7201C20.2182 26.1601 20.6382 25.4101 20.9982 24.4701C21.3582 23.5101 21.6182 22.4501 21.7782 21.2901C21.2382 21.1701 20.9682 20.7501 20.9682 20.0301C20.9682 19.2101 21.2782 18.6701 21.8982 18.4101C21.8582 17.7501 21.7582 17.3001 21.5982 17.0601C21.4382 16.8001 21.1582 16.6701 20.7582 16.6701C20.0982 16.6701 19.4582 17.1501 18.8382 18.1101C18.2182 19.0701 17.7182 20.2201 17.3382 21.5601C16.9582 22.9001 16.7682 24.0801 16.7682 25.1001C16.7682 26.0601 16.8782 26.7101 17.0982 27.0501C17.3182 27.3701 17.7182 27.5301 18.2982 27.5301ZM27.9418 15.1101H32.2618L31.8718 16.9701C32.5518 16.3701 33.1618 15.9101 33.7018 15.5901C34.2618 15.2701 34.8618 15.1101 35.5018 15.1101C36.1418 15.1101 36.6418 15.3301 37.0018 15.7701C37.3818 16.2101 37.5718 16.7401 37.5718 17.3601C37.5718 17.9401 37.3818 18.4501 37.0018 18.8901C36.6218 19.3301 36.0918 19.5501 35.4118 19.5501C34.9718 19.5501 34.6718 19.4501 34.5118 19.2501C34.3718 19.0301 34.2618 18.7201 34.1818 18.3201C34.1218 18.0601 34.0618 17.8701 34.0018 17.7501C33.9418 17.6301 33.8318 17.5701 33.6718 17.5701C33.2518 17.5701 32.8918 17.6601 32.5918 17.8401C32.3118 18.0001 31.9418 18.2901 31.4818 18.7101L29.0818 30.1101H24.7618L27.9418 15.1101ZM41.4711 30.2901C39.9911 30.2901 38.8411 29.9101 38.0211 29.1501C37.2011 28.3701 36.7911 27.1601 36.7911 25.5201C36.7911 24.1401 37.0611 22.6201 37.6011 20.9601C38.1411 19.3001 39.0211 17.8701 40.2411 16.6701C41.4611 15.4501 43.0111 14.8401 44.8911 14.8401C47.0911 14.8401 48.1911 15.8001 48.1911 17.7201C48.1911 18.8401 47.8711 19.8701 47.2311 20.8101C46.5911 21.7501 45.7411 22.5101 44.6811 23.0901C43.6211 23.6501 42.4911 23.9701 41.2911 24.0501C41.2511 24.6501 41.2311 25.0501 41.2311 25.2501C41.2311 26.2301 41.4011 26.9001 41.7411 27.2601C42.0811 27.6001 42.6311 27.7701 43.3911 27.7701C44.4711 27.7701 45.3911 27.5201 46.1511 27.0201C46.9311 26.5201 47.7811 25.7601 48.7011 24.7401H49.7211C47.5011 28.4401 44.7511 30.2901 41.4711 30.2901ZM41.5311 22.6101C42.2711 22.5701 42.9711 22.3101 43.6311 21.8301C44.3111 21.3501 44.8511 20.7401 45.2511 20.0001C45.6711 19.2601 45.8811 18.4801 45.8811 17.6601C45.8811 16.8401 45.6311 16.4301 45.1311 16.4301C44.4111 16.4301 43.7011 17.0601 43.0011 18.3201C42.3211 19.5801 41.8311 21.0101 41.5311 22.6101ZM66.4247 30.2901C65.3647 30.2901 64.5947 29.9701 64.1147 29.3301C63.6347 28.6901 63.3947 27.8801 63.3947 26.9001C63.3947 26.4801 63.4447 26.0101 63.5447 25.4901C63.6447 24.9501 63.7447 24.4301 63.8447 23.9301C63.9647 23.4301 64.0447 23.1101 64.0847 22.9701C64.2447 22.2701 64.3947 21.5801 64.5347 20.9001C64.6747 20.2201 64.7447 19.6701 64.7447 19.2501C64.7447 18.2301 64.3847 17.7201 63.6647 17.7201C63.1447 17.7201 62.6847 17.9801 62.2847 18.5001C61.8847 19.0001 61.5647 19.6601 61.3247 20.4801L59.2847 30.1101H54.9647L57.1547 19.7601C57.2147 19.5201 57.2447 19.2701 57.2447 19.0101C57.2447 18.1301 56.9447 17.6901 56.3447 17.6901C55.7847 17.6901 55.2947 17.9501 54.8747 18.4701C54.4747 18.9701 54.1547 19.6401 53.9147 20.4801L51.8747 30.1101H47.5547L50.7347 15.1101H55.0547L54.7247 16.6701C55.7447 15.5301 56.9647 14.9601 58.3847 14.9601C60.1447 14.9601 61.1747 15.8201 61.4747 17.5401C62.5747 15.8401 63.9647 14.9901 65.6447 14.9901C66.6647 14.9901 67.4747 15.2701 68.0747 15.8301C68.6747 16.3901 68.9747 17.2401 68.9747 18.3801C68.9747 18.9601 68.9047 19.6101 68.7647 20.3301C68.6247 21.0301 68.4247 21.8901 68.1647 22.9101C68.0047 23.5301 67.8547 24.1401 67.7147 24.7401C67.5947 25.3201 67.5347 25.7801 67.5347 26.1201C67.5347 26.5201 67.6247 26.8301 67.8047 27.0501C67.9847 27.2701 68.2947 27.3801 68.7347 27.3801C69.2147 27.3801 69.5447 27.3201 69.7247 27.2001C69.6047 28.2201 69.2347 28.9901 68.6147 29.5101C68.0147 30.0301 67.2847 30.2901 66.4247 30.2901ZM83.4038 9.74011C82.0638 10.2801 81.0238 11.1101 80.2838 12.2301C79.5638 13.3301 79.2038 14.6801 79.2038 16.2801C79.2038 17.0201 79.2738 17.5401 79.4138 17.8401C79.5538 18.1201 79.6238 18.2801 79.6238 18.3201C78.5438 18.3201 77.7338 18.1001 77.1938 17.6601C76.6738 17.2001 76.4138 16.4501 76.4138 15.4101C76.4138 14.1301 76.9338 12.8901 77.9738 11.6901C79.0338 10.4701 80.3838 9.49011 82.0238 8.75011C83.6638 7.99011 85.3038 7.61011 86.9438 7.61011C87.2238 7.61011 87.6238 7.63011 88.1438 7.67011L83.3738 30.1101H79.0538L83.4038 9.74011ZM89.7638 14.0001H94.0838L93.6038 16.2501C94.6038 15.3901 95.7738 14.9601 97.1138 14.9601C98.2338 14.9601 99.1238 15.3301 99.7838 16.0701C100.444 16.8101 100.774 18.0201 100.774 19.7001C100.774 21.2801 100.544 22.8801 100.084 24.5001C99.6238 26.1001 98.8438 27.4701 97.7438 28.6101C96.6438 29.7301 95.1938 30.2901 93.3938 30.2901C92.1138 30.2901 91.2638 29.9301 90.8438 29.2101L89.2838 36.5301L84.7538 37.6101L89.7638 14.0001ZM92.4638 27.6801C93.4238 27.6801 94.2138 27.2301 94.8338 26.3301C95.4738 25.4301 95.9338 24.3601 96.2138 23.1201C96.5138 21.8601 96.6638 20.6901 96.6638 19.6101C96.6638 17.9501 96.1638 17.1201 95.1638 17.1201C94.8038 17.1201 94.4338 17.2501 94.0538 17.5101C93.6938 17.7701 93.3738 18.1301 93.0938 18.5901L91.3238 26.9901C91.4838 27.4501 91.8638 27.6801 92.4638 27.6801ZM104.937 30.2901C103.977 30.2901 103.167 30.1101 102.507 29.7501C101.847 29.3701 101.357 28.8901 101.037 28.3101C100.717 27.7101 100.557 27.0901 100.557 26.4501C100.557 25.7901 100.717 25.2201 101.037 24.7401C101.337 24.2401 101.707 23.8801 102.147 23.6601C102.927 22.2601 103.607 20.8501 104.187 19.4301C104.767 17.9901 105.317 16.4401 105.837 14.7801L110.277 14.1801C110.377 16.7401 110.547 19.5101 110.787 22.4901C110.887 23.6901 110.937 24.5601 110.937 25.1001C110.937 25.5601 110.897 25.9401 110.817 26.2401C111.757 25.7001 112.477 25.2001 112.977 24.7401H114.237C112.957 26.2201 111.427 27.4701 109.647 28.4901C109.067 29.1101 108.347 29.5701 107.487 29.8701C106.647 30.1501 105.797 30.2901 104.937 30.2901ZM103.977 27.9201C104.717 27.9201 105.337 27.7001 105.837 27.2601C106.337 26.8201 106.587 26.1101 106.587 25.1301C106.587 24.5301 106.527 23.6901 106.407 22.6101C106.207 20.3301 106.077 18.8001 106.017 18.0201C105.537 19.6001 104.727 21.4901 103.587 23.6901C104.047 23.9301 104.277 24.2801 104.277 24.7401C104.277 25.1201 104.147 25.4601 103.887 25.7601C103.647 26.0601 103.337 26.2101 102.957 26.2101C102.537 26.2101 102.267 26.0801 102.147 25.8201C102.147 26.5401 102.287 27.0701 102.567 27.4101C102.867 27.7501 103.337 27.9201 103.977 27.9201ZM115.942 30.2901C114.982 30.2901 114.202 29.9901 113.602 29.3901C113.022 28.7901 112.732 27.8901 112.732 26.6901C112.732 26.1901 112.812 25.5401 112.972 24.7401L115.012 15.1101H119.332L117.172 25.3101C117.112 25.6101 117.082 25.8901 117.082 26.1501C117.082 26.9701 117.382 27.3801 117.982 27.3801C118.542 27.3801 119.022 27.1501 119.422 26.6901C119.822 26.2101 120.142 25.5601 120.382 24.7401L122.422 15.1101H126.742L124.582 25.3101C124.502 25.6101 124.462 25.9301 124.462 26.2701C124.462 26.6701 124.552 26.9601 124.732 27.1401C124.932 27.3001 125.252 27.3801 125.692 27.3801C126.252 27.3801 126.732 27.1401 127.132 26.6601C127.552 26.1801 127.882 25.5401 128.122 24.7401H129.382C128.642 26.9001 127.722 28.3701 126.622 29.1501C125.542 29.9101 124.452 30.2901 123.352 30.2901C122.492 30.2901 121.802 30.0501 121.282 29.5701C120.782 29.0901 120.482 28.3801 120.382 27.4401C119.702 28.5401 118.982 29.2901 118.222 29.6901C117.482 30.0901 116.722 30.2901 115.942 30.2901ZM145.849 30.2901C144.789 30.2901 144.019 29.9701 143.539 29.3301C143.059 28.6901 142.819 27.8801 142.819 26.9001C142.819 26.4801 142.869 26.0101 142.969 25.4901C143.069 24.9501 143.169 24.4301 143.269 23.9301C143.389 23.4301 143.469 23.1101 143.509 22.9701C143.669 22.2701 143.819 21.5801 143.959 20.9001C144.099 20.2201 144.169 19.6701 144.169 19.2501C144.169 18.2301 143.809 17.7201 143.089 17.7201C142.569 17.7201 142.109 17.9801 141.709 18.5001C141.309 19.0001 140.989 19.6601 140.749 20.4801L138.709 30.1101H134.389L136.579 19.7601C136.639 19.5201 136.669 19.2701 136.669 19.0101C136.669 18.1301 136.369 17.6901 135.769 17.6901C135.209 17.6901 134.719 17.9501 134.299 18.4701C133.899 18.9701 133.579 19.6401 133.339 20.4801L131.299 30.1101H126.979L130.159 15.1101H134.479L134.149 16.6701C135.169 15.5301 136.389 14.9601 137.809 14.9601C139.569 14.9601 140.599 15.8201 140.899 17.5401C141.999 15.8401 143.389 14.9901 145.069 14.9901C146.089 14.9901 146.899 15.2701 147.499 15.8301C148.099 16.3901 148.399 17.2401 148.399 18.3801C148.399 18.9601 148.329 19.6101 148.189 20.3301C148.049 21.0301 147.849 21.8901 147.589 22.9101C147.429 23.5301 147.279 24.1401 147.139 24.7401C147.019 25.3201 146.959 25.7801 146.959 26.1201C146.959 26.5201 147.049 26.8301 147.229 27.0501C147.409 27.2701 147.719 27.3801 148.159 27.3801C148.639 27.3801 148.969 27.3201 149.149 27.2001C149.029 28.2201 148.659 28.9901 148.039 29.5101C147.439 30.0301 146.709 30.2901 145.849 30.2901Z" fill="#292F36"/>
</svg>
