<svg width="133" height="44" viewBox="0 0 133 44" fill="none" xmlns="http://www.w3.org/2000/svg">
<path d="M11.7513 0.926697V1.11227L10.9727 1.29784V9.51997L11.7513 9.70553V9.89111H8.06006V9.70553L8.83868 9.51997V2.51117L5.78192 10.0196H5.39259L1.42744 2.51117V9.32012L2.46559 9.70553V9.89111H0V9.70553L1.03815 9.32012V1.29784L0.259526 1.11227V0.926697H1.87442C2.11953 0.926697 2.33582 0.955245 2.50884 1.01234C2.68187 1.06944 2.85492 1.14081 2.98469 1.24074C3.12887 1.34066 3.24422 1.45486 3.34515 1.58333C3.44609 1.7118 3.5326 1.86882 3.61911 2.02584L6.44517 7.37879L8.60798 2.02584C8.68007 1.84027 8.75219 1.68325 8.85312 1.55478C8.93963 1.42631 9.05495 1.31211 9.18472 1.21219C9.31449 1.11227 9.47312 1.04089 9.66056 0.998068C9.84801 0.955245 10.0787 0.926697 10.3671 0.926697H11.7513Z" fill="#292F36"/>
<path d="M16.3653 3.31061C16.8987 3.31061 17.389 3.38198 17.8071 3.539C18.2253 3.69602 18.5857 3.92441 18.8885 4.2099C19.1913 4.50967 19.4076 4.86653 19.5662 5.28049C19.7248 5.69445 19.7969 6.17979 19.7969 6.70795C19.7969 7.2361 19.7248 7.72144 19.5662 8.1354C19.4076 8.54936 19.1769 8.90622 18.8885 9.20599C18.5857 9.50575 18.2253 9.71987 17.8071 9.87689C17.389 10.0339 16.8987 10.1053 16.3653 10.1053C15.8318 10.1053 15.3415 10.0339 14.9234 9.87689C14.5052 9.71987 14.1448 9.49148 13.842 9.20599C13.5392 8.90622 13.3229 8.54936 13.1643 8.1354C13.0057 7.72144 12.9336 7.2361 12.9336 6.70795C12.9336 6.17979 13.0057 5.69445 13.1643 5.28049C13.3229 4.86653 13.5536 4.50967 13.842 4.2099C14.1448 3.91014 14.5052 3.69602 14.9234 3.539C15.3415 3.38198 15.8173 3.31061 16.3653 3.31061ZM16.3653 9.86262C16.5094 9.86262 16.6536 9.8198 16.8122 9.71987C16.9564 9.61995 17.0862 9.46293 17.2015 9.22026C17.3169 8.9776 17.4178 8.66356 17.4899 8.26387C17.562 7.84991 17.6052 7.33603 17.6052 6.72222C17.6052 6.09414 17.562 5.58026 17.4899 5.18057C17.4178 4.78088 17.3169 4.45257 17.2015 4.22418C17.0862 3.99578 16.9564 3.82449 16.8122 3.72457C16.668 3.62465 16.5239 3.58182 16.3653 3.58182C16.2211 3.58182 16.0769 3.62465 15.9183 3.72457C15.7741 3.82449 15.6443 3.98151 15.5289 4.22418C15.4136 4.46684 15.3127 4.78088 15.2406 5.18057C15.1685 5.59453 15.1252 6.10842 15.1252 6.72222C15.1252 7.3503 15.1685 7.86418 15.2406 8.26387C15.3127 8.66356 15.4136 8.99187 15.5289 9.22026C15.6443 9.44866 15.7741 9.61995 15.9183 9.71987C16.0625 9.80552 16.2067 9.86262 16.3653 9.86262Z" fill="#292F36"/>
<path d="M26.0978 0.926697C26.8764 0.926697 27.2657 1.31211 27.2657 2.08293V9.53424L28.0443 9.71981V9.90538H26.8764C26.5592 9.90538 26.314 9.86256 26.1266 9.76264C25.9392 9.66271 25.7805 9.54852 25.6796 9.43432C25.5498 9.29158 25.4489 9.12028 25.3913 8.94899C25.2759 9.17738 25.1317 9.36295 24.9587 9.53424C24.8145 9.67699 24.6126 9.80546 24.3675 9.93393C24.1224 10.0624 23.834 10.1195 23.5024 10.1195C23.1275 10.1195 22.7814 10.0481 22.4642 9.90538C22.1326 9.76264 21.8587 9.54852 21.628 9.26303C21.3973 8.97754 21.1954 8.62067 21.0657 8.20671C20.9215 7.77847 20.8638 7.29314 20.8638 6.72216C20.8638 6.15118 20.9359 5.66584 21.0657 5.23761C21.2098 4.80937 21.3972 4.46678 21.6568 4.18129C21.9019 3.8958 22.2047 3.68168 22.5508 3.53894C22.8968 3.39619 23.2861 3.32482 23.7187 3.32482C23.9494 3.32482 24.1512 3.35337 24.3387 3.39619C24.5261 3.45329 24.6847 3.51039 24.8145 3.58176C24.9731 3.65313 25.1029 3.73878 25.2182 3.8387V1.34066L24.4396 1.15509V0.969521H26.0978V0.926697ZM25.1894 4.20984C25.0885 4.10992 25.002 4.02427 24.8866 3.9529C24.7857 3.88153 24.6847 3.82443 24.5694 3.76733C24.454 3.71023 24.3387 3.69596 24.2089 3.69596C24.0503 3.69596 23.8917 3.73878 23.7475 3.82443C23.6033 3.91008 23.488 4.05282 23.3726 4.26694C23.2717 4.48106 23.1852 4.7951 23.1275 5.18051C23.0698 5.58019 23.041 6.0798 23.041 6.70788C23.041 7.32169 23.0698 7.80702 23.1275 8.19244C23.1852 8.57785 23.2573 8.87761 23.3582 9.09173C23.4447 9.30585 23.5457 9.46287 23.6754 9.53424C23.7908 9.60562 23.9061 9.64844 24.0215 9.64844C24.2233 9.64844 24.3963 9.59134 24.5405 9.49142C24.6847 9.3915 24.8001 9.26303 24.901 9.13455C25.0163 8.97753 25.1173 8.80624 25.2038 8.62067V4.20984H25.1894Z" fill="#292F36"/>
<path d="M32.3846 10.1196C31.2744 10.1196 30.4093 9.8198 29.8037 9.22027C29.1837 8.62074 28.8809 7.77854 28.8809 6.72223C28.8809 6.19407 28.953 5.70874 29.1116 5.29477C29.2702 4.88081 29.4865 4.52395 29.7604 4.22418C30.0344 3.92442 30.366 3.7103 30.7697 3.55328C31.159 3.39626 31.5916 3.32489 32.0674 3.32489C32.5576 3.32489 32.9902 3.39626 33.3651 3.52473C33.7544 3.66748 34.0716 3.85305 34.3456 4.08144C34.6195 4.30983 34.8214 4.58105 34.9656 4.89509C35.1097 5.20913 35.1818 5.53744 35.1818 5.89431C35.1818 6.0085 35.1819 6.1227 35.1674 6.20835C35.153 6.29399 35.1386 6.37964 35.1242 6.45101C35.0954 6.53666 35.0809 6.60803 35.0521 6.66513C34.6772 6.7365 34.2735 6.80788 33.8409 6.8507C33.4804 6.9078 33.0623 6.95062 32.5865 6.97917C32.1107 7.00772 31.6204 7.03627 31.1014 7.03627C31.1014 7.56443 31.1446 8.00694 31.2167 8.3638C31.2888 8.72067 31.4041 9.00615 31.5339 9.206C31.6781 9.42011 31.8367 9.56286 32.0241 9.64851C32.2116 9.73416 32.4279 9.77698 32.6442 9.77698C32.9037 9.77698 33.1488 9.73416 33.3795 9.63423C33.6102 9.53431 33.8121 9.42012 33.9707 9.2631C34.1437 9.10608 34.2735 8.92051 34.3744 8.72067C34.4753 8.52082 34.5186 8.32098 34.5186 8.10686H34.8358C34.8358 8.3638 34.7781 8.60647 34.6628 8.84913C34.5474 9.0918 34.3744 9.30592 34.1581 9.49149C33.9418 9.67706 33.6823 9.8198 33.3795 9.934C33.0911 10.0625 32.7595 10.1196 32.3846 10.1196ZM31.0869 6.70795C31.3753 6.70795 31.6348 6.70796 31.8655 6.69368C32.0962 6.67941 32.2837 6.66513 32.4423 6.65086C32.6297 6.63658 32.7739 6.60803 32.9037 6.59376C32.9181 6.50811 32.947 6.40819 32.9614 6.30827C32.9758 6.20835 32.9902 6.10842 33.0046 5.99423C33.0191 5.88003 33.019 5.75156 33.019 5.62309C33.019 5.23768 32.9902 4.90936 32.9325 4.65242C32.8748 4.39548 32.8027 4.18136 32.7018 4.01007C32.6153 3.85305 32.5144 3.72458 32.3846 3.66748C32.2548 3.61038 32.1539 3.56756 32.0386 3.56756C31.9232 3.56756 31.8079 3.61038 31.6925 3.69603C31.5772 3.78168 31.4762 3.9387 31.3753 4.15281C31.2888 4.38121 31.2023 4.69525 31.1446 5.10921C31.0869 5.52317 31.0869 6.05132 31.0869 6.70795Z" fill="#292F36"/>
<path d="M40.6322 3.75306C40.3726 3.75306 40.1419 3.81016 39.9401 3.91009C39.7382 4.01001 39.5652 4.13848 39.421 4.26695C39.2624 4.42397 39.1326 4.59526 39.0028 4.78083V9.53425L39.7815 9.71982V9.90539H36.1479V9.71982L36.9266 9.53425V3.88154L36.1479 3.69597V3.5104H37.3159C37.6187 3.5104 37.8638 3.5675 38.0656 3.66742C38.2531 3.76734 38.4117 3.88154 38.527 3.99573C38.6568 4.13848 38.7577 4.2955 38.8154 4.46679C38.9452 4.28122 39.1038 4.10993 39.2912 3.95291C39.4498 3.82444 39.6517 3.71024 39.8968 3.59605C40.1419 3.48185 40.4159 3.43903 40.7475 3.43903C41.2089 3.43903 41.555 3.55322 41.7857 3.75306C42.0164 3.96718 42.1173 4.26695 42.1173 4.65236C42.1173 4.93785 42.0308 5.18052 41.8578 5.35181C41.6847 5.52311 41.4396 5.60876 41.1512 5.60876C41.0792 5.60876 41.0215 5.60876 40.9494 5.60876C40.8773 5.60876 40.834 5.59448 40.7908 5.59448C40.7331 5.58021 40.6754 5.58021 40.6322 5.55166V3.75306Z" fill="#292F36"/>
<path d="M47.6971 5.42323C47.6971 5.13774 47.6683 4.8808 47.6106 4.66668C47.5529 4.45256 47.4809 4.28127 47.3799 4.1528C47.2934 4.01005 47.1925 3.91013 47.0627 3.85303C46.9474 3.79593 46.832 3.75311 46.7166 3.75311C46.5148 3.75311 46.3418 3.81021 46.1976 3.91013C46.0534 4.01005 45.9236 4.13852 45.8371 4.26699C45.7218 4.42401 45.6352 4.59531 45.5487 4.78088V9.5343L46.3274 9.71987V9.90544H42.6938V9.71987L43.4724 9.5343V3.88158L42.6938 3.69601V3.51044H43.8618C44.1646 3.51044 44.4097 3.56754 44.6115 3.66746C44.799 3.76739 44.9576 3.88158 45.0729 3.99578C45.2027 4.13852 45.3036 4.29554 45.3613 4.46684C45.4766 4.25272 45.6208 4.05288 45.7939 3.88158C45.9381 3.73884 46.1399 3.61037 46.3706 3.4819C46.6013 3.35343 46.9041 3.29633 47.2501 3.29633C47.625 3.29633 47.9711 3.35343 48.2739 3.4819C48.5911 3.59609 48.8506 3.76739 49.0669 3.95296C49.2832 4.1528 49.4562 4.36692 49.586 4.62386C49.7158 4.8808 49.7734 5.13774 49.7734 5.40896V9.52002L50.552 9.70559V9.89116H48.8651C48.0864 9.89116 47.6971 9.50575 47.6971 8.73492V5.42323Z" fill="#292F36"/>
<path d="M1.36963 18.9269V18.3987H11.3906V18.9269L9.28549 19.4551V30.2323H16.8409V19.4551L14.7358 18.9269V18.3987H24.7568V18.9269L22.6516 19.4551V41.7233L24.7568 42.2515V42.7797H14.7358V42.2372L16.8409 41.7091V31.1031H9.28549V41.7091L11.3906 42.2372V42.7654H1.36963V42.2372L3.47475 41.7091V19.4408L1.36963 18.9269Z" fill="#292F36"/>
<path d="M37.2149 24.8366C38.6712 24.8366 39.9688 25.0507 41.1223 25.4647C42.2758 25.8786 43.2419 26.4925 44.0493 27.2918C44.8568 28.0912 45.4768 29.0619 45.8949 30.2038C46.3131 31.3458 46.5294 32.6305 46.5294 34.0722C46.5294 35.514 46.3131 36.7987 45.8949 37.9406C45.4768 39.0826 44.8568 40.039 44.0493 40.8384C43.2419 41.6377 42.2614 42.2515 41.1223 42.6655C39.9688 43.0795 38.6712 43.2936 37.2149 43.2936C35.7586 43.2936 34.4609 43.0795 33.3074 42.6655C32.1539 42.2515 31.1879 41.6377 30.3804 40.8384C29.573 40.039 28.953 39.0683 28.5348 37.9406C28.1167 36.7987 27.9004 35.514 27.9004 34.0722C27.9004 32.6305 28.1167 31.3458 28.5348 30.2038C28.953 29.0619 29.573 28.1055 30.3804 27.2918C31.1879 26.4782 32.1683 25.8786 33.3074 25.4647C34.4609 25.0507 35.7586 24.8366 37.2149 24.8366ZM37.2149 42.5799C37.6186 42.5799 38.0079 42.4514 38.4117 42.1944C38.8154 41.9375 39.1614 41.495 39.4786 40.8526C39.7958 40.2103 40.0554 39.3395 40.2572 38.2404C40.4591 37.1413 40.56 35.7424 40.56 34.0437C40.56 32.345 40.4591 30.9461 40.2572 29.847C40.0554 28.7478 39.7958 27.8771 39.4786 27.2347C39.1614 26.5924 38.801 26.1499 38.4117 25.8929C38.0223 25.636 37.6186 25.5075 37.2149 25.5075C36.8111 25.5075 36.4219 25.636 36.0181 25.8929C35.6144 26.1499 35.2683 26.5924 34.9511 27.2347C34.6339 27.8771 34.3744 28.7478 34.1725 29.847C33.9707 30.9461 33.8697 32.345 33.8697 34.0437C33.8697 35.7424 33.9707 37.1413 34.1725 38.2404C34.3744 39.3395 34.6339 40.2103 34.9511 40.8526C35.2683 41.495 35.6288 41.9375 36.0181 42.1944C36.4219 42.4514 36.8111 42.5799 37.2149 42.5799Z" fill="#292F36"/>
<path d="M72.8725 30.575C72.8725 29.747 72.8004 29.0333 72.6562 28.4766C72.512 27.9199 72.339 27.4488 72.1083 27.092C71.8776 26.7351 71.6324 26.4782 71.3729 26.3069C71.0989 26.1498 70.8394 26.0642 70.5799 26.0642C70.1329 26.0642 69.7436 26.2069 69.3975 26.4924C69.0515 26.7779 68.7631 27.1062 68.5036 27.4488C68.2296 27.8628 67.9701 28.3339 67.7682 28.8335V41.7091L69.8878 42.2373V42.7654H60.0542V42.2373L62.1594 41.7091V30.575C62.1594 29.747 62.0872 29.0333 61.943 28.4766C61.7989 27.9199 61.6258 27.4488 61.3951 27.092C61.1644 26.7351 60.9193 26.4782 60.6598 26.3069C60.3858 26.1498 60.1263 26.0642 59.8667 26.0642C59.4198 26.0642 59.0305 26.2069 58.6844 26.4924C58.3384 26.7779 58.05 27.1062 57.7904 27.4488C57.5021 27.8628 57.257 28.3339 57.0551 28.8335V41.7091L59.1602 42.2373V42.7654H49.3267V42.2373L51.4318 41.7091V26.4068L49.3267 25.8786V25.3505H52.4844C53.3062 25.3505 53.9839 25.4932 54.503 25.7644C55.0365 26.0357 55.4402 26.3497 55.7574 26.6637C56.1035 27.0634 56.363 27.4917 56.536 27.9484C56.8388 27.3632 57.2137 26.8493 57.6607 26.3782C58.0644 25.9786 58.5547 25.6217 59.1314 25.2934C59.7226 24.9651 60.4291 24.808 61.2798 24.808C62.6784 24.808 63.904 25.1221 64.9133 25.7359C65.937 26.3497 66.7157 27.1491 67.2492 28.1197C67.552 27.5202 67.9268 26.9778 68.3738 26.4782C68.7775 26.0642 69.2678 25.6788 69.8445 25.3362C70.4357 24.9936 71.1422 24.808 71.9929 24.808C72.959 24.808 73.8241 24.9651 74.6315 25.2648C75.4246 25.5646 76.1167 25.9786 76.6934 26.5067C77.2702 27.0349 77.7171 27.6344 78.0343 28.3339C78.3516 29.0333 78.5102 29.7756 78.5102 30.5607V41.6948L80.6153 42.223V42.7511H76.0446C73.9394 42.7511 72.8868 41.7091 72.8868 39.625V30.575H72.8725Z" fill="#292F36"/>
<path d="M92.2078 43.2793C89.2087 43.2793 86.8728 42.4657 85.2147 40.8241C83.5565 39.1825 82.7202 36.9414 82.7202 34.0579C82.7202 32.6162 82.9365 31.3315 83.3546 30.1895C83.7728 29.0476 84.364 28.0912 85.1137 27.2775C85.8635 26.4782 86.7719 25.8644 87.8389 25.4504C88.9059 25.0364 90.0738 24.8223 91.3282 24.8223C92.6403 24.8223 93.8226 25.0079 94.8608 25.379C95.8989 25.7502 96.7929 26.2498 97.5138 26.8779C98.2348 27.5059 98.7971 28.2482 99.1864 29.0904C99.5757 29.9326 99.7632 30.8319 99.7632 31.7883C99.7632 32.1166 99.7487 32.4021 99.7055 32.6448C99.6622 32.8874 99.6334 33.1016 99.5757 33.2871C99.5036 33.5155 99.4459 33.7154 99.4027 33.8724C98.3645 34.0865 97.2832 34.2578 96.1297 34.4005C95.1492 34.5433 94.0101 34.6575 92.7268 34.7717C91.4435 34.8716 90.0882 34.9287 88.6896 34.9287C88.6896 36.3704 88.7905 37.5695 89.0068 38.5259C89.2231 39.4823 89.5114 40.2531 89.8863 40.8241C90.2612 41.3951 90.7082 41.7947 91.2273 42.0374C91.7463 42.2801 92.3087 42.4086 92.9143 42.4086C93.6208 42.4086 94.284 42.2801 94.9041 42.0231C95.5241 41.7662 96.0575 41.4236 96.5189 40.9954C96.9803 40.5671 97.3408 40.0818 97.6148 39.5394C97.8887 38.9969 98.0185 38.4402 98.0185 37.8835H98.898C98.898 38.583 98.7394 39.2539 98.4222 39.8962C98.105 40.5529 97.658 41.1238 97.0669 41.6234C96.4757 42.1231 95.7836 42.5227 94.9617 42.8225C94.1255 43.1223 93.2027 43.2793 92.2078 43.2793ZM88.6896 34.0579C89.4826 34.0579 90.1891 34.0437 90.7947 34.0009C91.4003 33.958 91.9194 33.9295 92.3375 33.8867C92.8278 33.8438 93.2459 33.7867 93.6064 33.7154C93.6496 33.487 93.7073 33.23 93.7794 32.9445C93.8227 32.6876 93.8659 32.4021 93.8947 32.0881C93.9236 31.774 93.9524 31.4457 93.9524 31.1031C93.9524 30.0611 93.8659 29.1903 93.7073 28.4766C93.5487 27.7629 93.3324 27.1919 93.0873 26.7494C92.8422 26.3069 92.5538 25.9928 92.251 25.8073C91.9338 25.6217 91.6166 25.5218 91.3138 25.5218C91.011 25.5218 90.6938 25.636 90.3766 25.8501C90.0593 26.0785 89.7854 26.4924 89.5403 27.1063C89.2952 27.7201 89.0933 28.5908 88.9203 29.7042C88.7761 30.8176 88.6896 32.2736 88.6896 34.0579Z" fill="#292F36"/>
<path d="M117.022 42.4085V28.291L104.42 18.413V42.4085H117.022Z" fill="#292F36"/>
<path d="M132.609 42.4085V28.291L120.209 18.413V42.4085H132.609Z" fill="#292F36"/>
</svg>
