<svg width="147" height="45" viewBox="0 0 147 45" fill="none" xmlns="http://www.w3.org/2000/svg">
<path d="M20.7157 8.90761L21.7971 8.67922C22.071 8.67922 22.3017 8.73632 22.4604 8.85051C22.619 8.96471 22.7055 9.0789 22.7055 9.17883C22.7055 9.27875 22.6766 9.43577 22.6334 9.62134C22.5901 9.8069 22.1864 11.7197 21.4366 15.3312C20.6868 18.9426 20.1389 21.6405 19.7929 23.4105C21.4655 21.1552 23.4264 18.3859 25.6613 15.0885C27.8962 11.7911 29.2083 9.60706 29.5832 8.5222C29.6986 8.17961 29.8571 7.92267 30.0446 7.7371C30.232 7.55153 30.4051 7.43733 30.5493 7.40878C30.6934 7.38023 30.9241 7.35168 31.2269 7.35168C31.5297 7.35168 31.8902 7.42306 32.3083 7.55153C32.7265 7.68 32.9428 7.89412 32.9428 8.20816C32.9428 8.77914 32.0776 10.4493 30.3618 13.19C28.646 15.9307 26.6706 18.8427 24.4501 21.926C22.2297 25.0093 20.3841 27.4502 18.8989 29.2488C18.6394 29.5629 18.3078 29.7342 17.9329 29.7342C17.558 29.7342 17.1543 29.6628 16.7361 29.5343C16.318 29.4058 16.1017 29.1774 16.1017 28.8349C16.1017 27.7643 17.0533 22.5969 18.9566 13.3613C17.3273 15.4453 15.3519 18.3574 13.0305 22.083C10.6082 25.9371 9.23838 28.3353 8.92117 29.2488C8.74815 29.8055 8.54629 30.1338 8.31559 30.2195C8.15698 30.2909 7.98395 30.3194 7.81093 30.3194L6.64301 30.4479C6.41231 30.4479 6.21045 30.3908 6.00858 30.2623C5.82114 30.1338 5.72021 30.0054 5.72021 29.8626C5.72021 29.4772 6.26813 28.3067 7.34954 26.3654C8.43094 24.424 9.7142 22.3114 11.1705 20.0275C12.6268 17.7435 14.1408 15.531 15.7268 13.3755C17.3129 11.2201 18.5385 9.76408 19.4036 9.03608C19.5766 8.87906 19.7785 8.80769 20.0092 8.80769L20.7157 8.90761Z" fill="#292F36"/>
<path d="M38.0468 18.5859C38.7965 18.5859 39.1714 18.8428 39.1714 19.3424C39.1714 19.6137 39.1137 19.8135 38.984 19.942C38.8542 20.0704 38.5803 20.4844 38.1621 21.2124C37.744 21.9261 37.2826 22.8397 36.7779 23.9674C36.2733 25.0808 35.9416 26.0372 35.7974 26.8223C35.7686 26.9222 35.7542 27.0507 35.7542 27.2363C35.7542 27.7787 35.8984 28.0356 36.2012 28.0356C36.504 28.0356 36.85 27.8929 37.2537 27.6217C37.6575 27.3362 38.0179 27.0507 38.3351 26.7224C38.6523 26.4083 38.9551 26.08 39.2579 25.7517C39.5607 25.4234 39.7338 25.2236 39.7914 25.1807C39.8491 25.1379 39.9356 25.1094 40.051 25.1094C40.2384 25.1094 40.3538 25.2521 40.397 25.5376C40.4403 25.8231 40.4547 26.1086 40.4547 26.4226C40.4547 26.7366 40.4259 26.9365 40.3682 27.0507C40.0798 27.6074 39.4598 28.2783 38.4793 29.0634C37.5133 29.8485 36.6193 30.2339 35.8263 30.2339C35.0333 30.2339 34.4421 29.9912 34.0816 29.5202C33.7211 29.0491 33.5193 28.5067 33.5193 27.9357C33.5193 27.3505 33.6202 26.8508 33.8221 26.4083C33.0002 27.4647 32.063 28.3497 31.0104 29.0919C29.9434 29.8199 29.0927 30.1911 28.4151 30.1911C27.7374 30.1911 27.2039 29.9912 26.7713 29.5916C26.2234 29.0919 25.9639 28.4068 25.9639 27.5217C25.9639 26.6367 26.1657 25.7517 26.5695 24.8524C26.9732 23.9674 27.4923 23.1395 28.1411 22.4115C28.79 21.6692 29.5109 20.9983 30.2895 20.3988C31.9188 19.1283 33.4328 18.5002 34.817 18.5002C35.3505 18.5002 35.783 18.5859 36.1147 18.7572C36.4463 18.9285 36.6626 19.1569 36.7491 19.4138C36.9798 19.057 37.1816 18.8428 37.3547 18.7429C37.4844 18.6287 37.7296 18.5859 38.0468 18.5859ZM36.0858 20.2132C34.3988 20.2132 32.6542 21.141 30.8518 22.9967C30.2174 23.6676 29.6262 24.4527 29.0783 25.3806C28.5304 26.3084 28.2709 26.9365 28.2709 27.2791C28.2709 27.6217 28.3718 27.793 28.5737 27.793C28.8476 27.793 29.6118 27.2505 30.8807 26.1799C32.1495 25.1094 32.9858 24.31 33.3895 23.7961C33.8509 23.2251 34.7449 22.0261 36.0858 20.2132Z" fill="#292F36"/>
<path d="M49.2647 10.8489L49.8703 10.9916C49.9568 10.9916 50.0434 11.0344 50.101 11.1201C50.1731 11.2057 50.202 11.2914 50.202 11.3628C50.202 11.4341 50.101 11.6482 49.8848 11.9908C49.6685 12.3334 49.4378 12.7188 49.1494 13.1471C48.861 13.5753 48.7168 13.818 48.7024 13.8608C49.4666 13.8037 50.0145 13.7752 50.3317 13.7752C50.6489 13.7752 50.8652 13.8037 50.995 13.8465C51.1103 13.8894 51.2545 14.0178 51.3987 14.2177C51.5573 14.4175 51.6871 14.5745 51.8169 14.6745C51.9466 14.7744 52.0043 14.9314 52.0043 15.1312C52.0043 15.3311 51.8745 15.5167 51.6294 15.6451C51.3843 15.7879 51.1103 15.8735 50.822 15.9021C48.5294 16.1305 47.275 16.2447 47.0443 16.2589C46.2512 17.4723 45.1266 19.3565 43.6991 21.9116C42.2717 24.4668 41.5075 26.0798 41.421 26.7222C41.3777 27.0219 41.3633 27.2503 41.3633 27.4359C41.3633 27.8213 41.5651 28.0069 41.9689 28.0069C42.3726 28.0069 42.8196 27.8499 43.3098 27.5501C43.8 27.236 44.2614 26.9077 44.6652 26.5509C45.7754 25.5802 46.3666 25.0806 46.4387 25.0806C46.6982 25.0806 46.828 25.5231 46.828 26.3938C46.828 26.8649 46.6117 27.2931 46.1647 27.6786C45.1698 28.5208 44.3335 29.1631 43.6559 29.5913C42.9782 30.0196 42.3005 30.2337 41.6084 30.2337C41.4642 30.2337 41.32 30.2194 41.1903 30.1909C40.3972 30.0481 39.8205 29.7626 39.46 29.3344C39.0851 28.9062 38.9121 28.3352 38.9121 27.6215C38.9121 26.9077 39.1284 26.0227 39.5609 24.9949C39.9935 23.9672 40.527 22.868 41.1758 21.7118C42.2428 19.8133 43.3098 18.0432 44.3624 16.3874L43.8001 16.4588C42.661 16.5872 41.9977 16.6443 41.8103 16.6443H41.6805C41.3921 16.6443 41.1182 16.5872 40.8586 16.473C40.5991 16.3588 40.4549 16.2161 40.4549 16.0591C40.4549 15.8878 40.527 15.7308 40.6712 15.5737C40.8154 15.4167 40.9019 15.2883 40.9307 15.2026C41.0028 14.9885 41.2623 14.7458 41.7093 14.4889C42.1563 14.2319 42.488 14.0892 42.7187 14.0749C42.9494 14.0606 43.1656 14.0464 43.3819 14.0321C43.5982 14.0178 43.8289 14.0178 44.0884 14.0035C44.348 13.9893 44.5498 13.9893 44.694 13.975L46.0205 13.9179C46.8424 12.6903 47.4192 11.8909 47.722 11.5483C48.0392 11.1915 48.2122 11.0059 48.2554 10.9773C48.2987 10.9488 48.3996 10.9202 48.5582 10.9202L49.2647 10.8489Z" fill="#292F36"/>
<path d="M58.1321 25.1093C58.3196 25.1093 58.4349 25.2521 58.4781 25.5375C58.5214 25.823 58.5358 26.1085 58.5358 26.4226C58.5358 26.7366 58.507 26.9364 58.4493 27.0506C58.1609 27.5931 57.5409 28.264 56.5749 29.0491C55.6088 29.8342 54.686 30.2339 53.8209 30.2339C53.2874 30.2339 52.7972 30.0768 52.3358 29.7628C51.8888 29.4488 51.6581 28.8921 51.6581 28.107C51.6581 27.3219 51.8744 26.5368 52.2925 25.7802C49.8413 28.8207 47.9381 30.3338 46.5394 30.3338C45.9915 30.3338 45.5446 30.1339 45.1985 29.7485C44.8525 29.3631 44.6938 28.9634 44.6938 28.5352C44.6938 28.1212 44.7515 27.693 44.8669 27.2505C44.9822 26.808 45.112 26.4083 45.2418 26.0514C45.3715 25.6946 45.5734 25.2663 45.8329 24.7524C46.0925 24.2386 46.2943 23.8674 46.4097 23.6248C46.525 23.3821 46.7413 23.0395 47.0297 22.5684C47.318 22.0974 47.6785 21.455 48.1399 20.6556C48.6013 19.8563 48.9762 19.2567 49.279 18.8713C49.5818 18.4859 49.8702 18.2861 50.1585 18.2861C50.4469 18.2861 50.692 18.4003 50.9083 18.6287C51.1246 18.8571 51.2399 19.0569 51.2399 19.1996C51.2399 19.3424 50.9083 19.999 50.2451 21.1695C48.2985 24.6668 47.3181 26.6938 47.3181 27.279C47.3181 27.4218 47.3757 27.4932 47.4767 27.4932C47.9525 27.4932 49.1348 26.4797 51.0093 24.4527C52.8837 22.4257 53.9795 21.1267 54.2823 20.5557C54.5851 19.9847 54.859 19.4994 55.1474 19.114C55.4214 18.7286 55.6377 18.4859 55.7818 18.4003C56.2 18.1291 56.7479 17.9863 57.4256 17.9578C57.5409 17.9578 57.613 17.9578 57.6707 17.972C57.7284 17.9863 57.8005 18.072 57.8726 18.2147C57.9447 18.3575 57.9879 18.4859 57.9879 18.5858C57.9014 18.8571 57.5121 19.5851 56.8056 20.7698C56.1135 21.9546 55.7242 22.6255 55.6521 22.7683C54.4842 25.1521 53.9074 26.7081 53.9074 27.4218C53.9074 27.8357 54.066 28.0356 54.3832 28.0356C54.96 27.9642 55.6521 27.5074 56.4595 26.6795C56.7623 26.3797 57.0507 26.0657 57.3391 25.7517C57.6274 25.4376 57.8149 25.2521 57.8726 25.2092C57.9447 25.1379 58.0312 25.1093 58.1321 25.1093Z" fill="#292F36"/>
<path d="M62.4145 21.7263C64.7359 19.114 66.7257 17.8008 68.355 17.8008C68.7587 17.8008 69.0904 17.915 69.3499 18.1576C69.6095 18.4003 69.7392 18.7001 69.7392 19.0855C69.7392 19.4709 69.4653 20.099 68.9173 20.9983C68.3694 21.8833 67.8648 22.6398 67.4034 23.2536C67.1583 23.5677 66.8843 23.7247 66.5671 23.7247C66.2643 23.7247 66.0192 23.6105 65.8462 23.3821C65.6731 23.1537 65.5866 22.8968 65.5866 22.597C65.5866 21.9261 65.9471 21.1553 66.6824 20.3131L66.6536 20.2845C66.322 20.3131 65.5289 20.9554 64.2313 22.183C62.948 23.4249 61.8522 24.5383 60.9438 25.509C60.0498 26.494 59.0694 27.6787 58.0024 29.0919C57.6996 29.5059 57.44 29.72 57.2238 29.72C57.0075 29.72 56.7335 29.6486 56.3875 29.5201C56.0414 29.3917 55.8251 29.2918 55.753 29.2347C55.681 29.1776 55.6377 29.0776 55.6377 28.9349C55.6377 28.8064 55.681 28.6351 55.753 28.4638C55.8251 28.2783 55.9838 28.0213 56.1856 27.693C56.3875 27.3647 56.7191 26.8223 57.1517 26.08C57.5842 25.3377 58.2475 24.21 59.1559 22.7112C60.0642 21.2124 60.5977 20.2988 60.7852 19.9848C61.1601 19.3424 61.4629 18.8713 61.708 18.5859C62.155 18.0291 62.9047 17.7579 63.9573 17.7579C64.188 17.7579 64.3178 17.9007 64.3178 18.2004C64.3178 18.6572 63.8852 19.528 63.0345 20.7841L62.4145 21.7263Z" fill="#292F36"/>
<path d="M78.3185 18.7571C78.3185 19.3994 78.059 19.9704 77.5255 20.4558C76.992 20.9411 76.4008 21.1838 75.7231 21.1838C75.5069 21.1838 75.3627 21.1267 75.2906 21.0267C75.2185 20.9268 75.1896 20.7841 75.1896 20.6271C75.1896 20.47 75.2041 20.2987 75.2473 20.1417C74.8868 20.2559 74.4975 20.4415 74.065 20.6842C73.6324 20.9268 73.0989 21.2837 72.4645 21.769C71.8301 22.2544 71.5129 22.5969 71.5129 22.8396C71.5129 22.911 71.6282 22.9538 71.8589 22.9538C72.0896 22.9538 72.4501 22.8682 72.9259 22.7111C73.4017 22.5541 73.7478 22.4685 73.9352 22.4685C74.1226 22.4685 74.2524 22.4827 74.3101 22.497C74.4398 22.5684 74.5696 22.7111 74.7282 22.9395C74.8724 23.1679 74.9445 23.3535 74.9445 23.482C74.9445 23.6104 74.8148 23.7817 74.5552 23.9958C74.2957 24.21 74.0073 24.367 73.6901 24.4812C73.3585 24.5954 73.1422 24.681 73.0412 24.7381C70.965 25.8944 69.9268 26.6795 69.9268 27.1077C69.9268 27.8642 70.5756 28.2497 71.8877 28.2497C72.724 28.2497 73.5747 27.9927 74.411 27.4646C75.132 27.022 75.7808 26.5653 76.3576 26.0942C76.9343 25.6374 77.2948 25.3519 77.4534 25.2377C77.612 25.1235 77.7273 25.0807 77.7994 25.0807C78.059 25.0807 78.1887 25.3662 78.1887 25.9372C78.1887 26.5082 78.1599 26.8793 78.0878 27.0506C78.0157 27.2362 77.8283 27.4503 77.4966 27.7215C75.3915 29.4202 73.3873 30.2766 71.5129 30.2766C70.5036 30.2766 69.7105 30.1339 69.1049 29.8627C67.9947 29.3631 67.4468 28.6065 67.4468 27.5788C67.4468 26.237 68.384 25.2092 70.2729 24.524C69.898 24.3527 69.6529 24.1529 69.5519 23.8817C69.4366 23.6247 69.3933 23.2107 69.3933 22.6398C69.3933 22.0688 69.6673 21.4693 70.2008 20.8269C70.7343 20.1846 71.3975 19.6564 72.1761 19.2567C73.9064 18.3289 75.4636 17.8721 76.8189 17.8721C77.1506 17.8721 77.4678 17.9434 77.8138 18.1005C78.1599 18.2575 78.3185 18.4716 78.3185 18.7571Z" fill="#292F36"/>
<path d="M111.972 8.82199H112.159C112.217 8.82199 112.26 8.82199 112.274 8.83626C112.289 8.85054 112.303 8.85054 112.332 8.86481C112.361 8.86481 112.375 8.87909 112.404 8.90763C112.447 8.95046 112.52 8.99328 112.606 9.03611C112.721 9.12175 112.779 9.22168 112.779 9.33587C112.779 9.45007 112.664 9.69274 112.433 10.0639C112.202 10.435 111.611 11.3343 110.645 12.7903C108.439 16.1306 106.464 19.2424 104.719 22.0973C101.705 27.0648 100.177 29.5629 100.148 29.5914C100.119 29.62 100.105 29.6485 100.091 29.6771C100.076 29.7342 100.047 29.7627 99.9752 29.7627L99.7733 29.7199L99.3696 29.8198L99.1389 29.777L98.8938 29.8198H98.8073L97.9854 29.934C97.4952 29.934 97.2501 29.7627 97.2501 29.4344C97.2501 29.2917 97.2933 29.1204 97.3798 28.9205C97.6826 28.2068 99.2254 25.6231 101.994 21.1409C100.177 21.1837 98.3747 21.2123 96.6012 21.2123L93.4291 21.198C92.91 22.0259 92.1891 23.1964 91.2807 24.7238C89.3198 28.0498 88.2816 29.7199 88.1519 29.7485C88.0221 29.777 87.9212 29.8056 87.8346 29.8056C87.7481 29.8056 87.6761 29.7627 87.6184 29.6628C87.5463 29.5772 87.503 29.5201 87.4742 29.5201C87.4453 29.5201 87.4021 29.5343 87.3156 29.5772C87.2435 29.62 87.1281 29.6343 86.9695 29.6343L86.6235 29.62L86.4937 29.5343C86.4793 29.5343 86.4649 29.5486 86.4505 29.5772C86.436 29.6057 86.3928 29.62 86.3351 29.62C85.917 29.62 85.7007 29.4487 85.7007 29.0918C85.7007 28.8634 85.7872 28.5494 85.9458 28.164C86.1188 27.7786 86.3351 27.3646 86.6091 26.9221C86.883 26.4796 87.5751 25.409 88.7142 23.7389C89.8389 22.0688 90.4012 21.2266 90.4012 21.2123C90.2137 21.198 89.9975 21.198 89.7523 21.1837C89.2477 21.1837 88.9016 21.1695 88.6853 21.1266C88.123 21.0267 87.7337 20.5699 87.5319 19.7563C87.4165 19.3566 87.3733 19.0997 87.3877 18.9712C87.3877 18.7142 87.503 18.5715 87.7337 18.5715L88.123 18.6714C88.3249 18.6857 88.7863 18.7 89.5361 18.7428C90.2858 18.7856 90.8193 18.7999 91.151 18.7999L91.9872 18.7713C93.2705 16.7872 94.7989 14.5318 96.5868 12.0195C95.2891 13.0758 93.8473 13.604 92.2612 13.604C91.5114 13.604 90.8626 13.4327 90.3291 13.0758C89.7812 12.7189 89.5216 12.2622 89.5216 11.7197C89.5216 11.1773 89.7235 10.7491 90.1417 10.4207C90.5598 10.1067 90.9491 9.94968 91.324 9.94968C91.6989 9.94968 91.8863 10.0068 91.8863 10.121C91.8863 10.1638 91.8286 10.2066 91.7277 10.2494C91.6268 10.3065 91.5691 10.3494 91.5691 10.3922C91.5691 10.5492 91.7421 10.692 92.0882 10.8061C92.4342 10.9203 92.8235 10.9917 93.2561 10.9917C93.6886 10.9917 94.2077 10.8632 94.8421 10.6206C95.4766 10.3779 96.1254 10.0496 96.8031 9.66419C97.7547 9.12175 98.5045 8.66497 99.0524 8.3081C99.3696 8.15108 99.658 8.07971 99.9464 8.07971C100.235 8.07971 100.422 8.10826 100.552 8.17963C100.682 8.23673 100.768 8.30811 100.826 8.3652C100.884 8.4223 100.956 8.50795 101.013 8.60787C101.085 8.70779 101.143 8.79344 101.215 8.83626C101.273 8.89336 101.316 8.95046 101.316 9.02183C101.316 9.0932 101.273 9.19313 101.201 9.35015C101.129 9.49289 100.754 10.0924 100.076 11.1345C99.3985 12.1765 98.5189 13.504 97.4519 15.1171C96.3849 16.7301 95.6063 17.9149 95.1161 18.6857C97.7547 18.6857 100.595 18.6429 103.652 18.5429C107.372 12.7332 109.333 9.69273 109.535 9.40724C109.737 9.12175 109.924 8.93619 110.097 8.85054C110.27 8.76489 110.472 8.72207 110.717 8.72207L111.972 8.82199Z" fill="#292F36"/>
<path d="M116.788 18.5573C117.091 18.5573 117.393 18.6857 117.696 18.957C118.013 19.2282 118.158 19.6279 118.158 20.1703C118.158 20.7127 117.97 21.4122 117.581 22.2829C117.191 23.1394 116.672 24.0244 115.995 24.9237C115.331 25.8087 114.582 26.6509 113.789 27.436C112.981 28.2211 112.116 28.8635 111.193 29.3631C110.256 29.8627 109.42 30.1196 108.656 30.1196C107.891 30.1196 107.286 29.877 106.824 29.4059C106.363 28.9349 106.132 28.2782 106.132 27.436C106.132 26.5938 106.349 25.6517 106.767 24.6382C107.185 23.6105 107.718 22.7112 108.382 21.9261C109.045 21.141 109.751 20.4415 110.53 19.8134C112.131 18.5287 113.544 17.9006 114.755 17.9006C115.303 17.9006 115.706 18.0291 115.98 18.3003C116.081 18.386 116.124 18.4716 116.124 18.5287V18.6144C116.283 18.5573 116.499 18.5573 116.788 18.5573ZM115.303 20.4986H115.202C114.856 20.4986 114.683 20.2559 114.683 19.7563C113.962 19.9847 113.212 20.3987 112.419 20.9839C111.626 21.5692 110.919 22.2686 110.299 23.068C109.03 24.6668 108.396 26.0229 108.382 27.122C108.382 27.6644 108.584 27.9356 108.987 27.9356C109.391 27.9356 109.997 27.6644 110.79 27.1505C111.583 26.6367 112.376 25.8801 113.169 24.8952C113.947 23.9245 114.538 23.068 114.928 22.3543C115.317 21.6406 115.519 21.1552 115.519 20.884C115.504 20.6271 115.432 20.4986 115.303 20.4986Z" fill="#292F36"/>
<path d="M117.84 29.7912L117.119 29.7627H116.86C116.759 29.7341 116.658 29.677 116.542 29.5914C116.427 29.5057 116.34 29.4344 116.283 29.4058C116.225 29.3773 116.196 29.2916 116.196 29.1917C116.196 29.0918 116.24 28.9062 116.312 28.6635C118.229 24.4811 120.089 21.1266 121.892 18.6285C122.094 18.3573 122.411 18.1432 122.843 18.0005C123.276 17.8577 123.708 17.7863 124.127 17.7863C124.372 17.7863 124.501 17.9719 124.501 18.3573C124.501 18.4715 124.458 18.6143 124.386 18.7856C124.314 18.9711 124.112 19.2566 123.795 19.6706C123.478 20.0845 123.103 20.5556 122.67 21.0695C122.238 21.5834 121.993 21.8974 121.935 21.9831C123.29 20.5984 124.501 19.5707 125.597 18.8855C126.693 18.2146 127.472 17.872 127.962 17.872C128.452 17.872 128.827 18.0147 129.087 18.286C129.346 18.5572 129.476 18.8569 129.476 19.171C129.476 19.485 129.447 19.7562 129.404 19.9561C129.361 20.1702 129.274 20.3843 129.159 20.6127C129.043 20.8411 128.942 21.0409 128.856 21.198C128.769 21.355 128.625 21.5691 128.438 21.826C128.236 22.083 128.106 22.2685 128.034 22.3685C127.962 22.4684 127.803 22.654 127.573 22.9252C127.342 23.1964 127.212 23.3534 127.198 23.382C127.472 23.1107 127.861 22.7111 128.351 22.1686C128.842 21.6262 129.26 21.1837 129.606 20.8268C129.952 20.47 130.37 20.056 130.889 19.5992C131.408 19.1424 131.884 18.7713 132.316 18.5001C133.383 17.8434 134.465 17.5009 135.561 17.5009C135.936 17.5009 136.253 17.6151 136.512 17.8577C136.772 18.1004 136.902 18.3716 136.902 18.6999C136.902 19.0282 136.498 19.8133 135.705 21.0409C134.912 22.2685 134.104 23.5104 133.311 24.7523C132.518 25.9942 132.115 26.7793 132.115 27.1076C132.115 27.5501 132.201 27.8213 132.36 27.907C132.533 27.9926 132.735 28.0212 132.965 28.0069C133.196 27.9926 133.542 27.8356 133.96 27.5501C134.393 27.2646 134.768 26.9791 135.099 26.6651C135.647 26.1798 136.137 25.7087 136.613 25.2519C136.714 25.1663 136.815 25.1235 136.945 25.1235C137.132 25.1235 137.248 25.2662 137.291 25.5517C137.334 25.8372 137.349 26.1227 137.349 26.4367C137.349 26.7508 137.32 26.9506 137.262 27.0648C136.974 27.6072 136.339 28.2781 135.373 29.0775C134.393 29.8626 133.456 30.2623 132.562 30.2623C132.446 30.2623 132.374 30.2623 132.331 30.248C131.322 30.1481 130.615 29.8769 130.226 29.4201C129.836 28.9633 129.649 28.4209 129.649 27.8071C129.649 27.1933 129.865 26.4224 130.298 25.5374C130.73 24.6524 131.192 23.8387 131.711 23.125C132.23 22.4113 132.691 21.7547 133.124 21.1694C133.556 20.5842 133.773 20.2701 133.773 20.2273C133.773 20.1845 133.729 20.1559 133.657 20.1559C133.355 20.1559 132.677 20.6413 131.61 21.6262C129.808 23.2963 128.25 24.9093 126.938 26.451C126.592 26.865 125.77 27.8927 124.487 29.5628C124.343 29.7627 124.098 29.8626 123.781 29.8626C123.463 29.8626 123.132 29.8055 122.786 29.677C122.44 29.5486 122.267 29.3915 122.267 29.206C122.267 29.1061 123.045 27.7357 124.617 25.0949C126.188 22.4541 126.967 21.0124 126.967 20.784C126.967 20.5413 126.823 20.4271 126.535 20.4271C126.246 20.4271 125.641 20.8554 124.732 21.7118C122.238 24.0671 120.306 26.4224 118.936 28.7492C118.849 28.8919 118.676 29.1061 118.417 29.3915C118.157 29.677 117.927 29.7912 117.84 29.7912Z" fill="#292F36"/>
<path d="M146.433 18.7571C146.433 19.3994 146.173 19.9704 145.64 20.4558C145.106 20.9411 144.515 21.1838 143.837 21.1838C143.621 21.1838 143.477 21.1267 143.405 21.0267C143.333 20.9268 143.304 20.7841 143.304 20.6271C143.304 20.47 143.318 20.2987 143.362 20.1417C143.001 20.2559 142.612 20.4415 142.179 20.6842C141.747 20.9268 141.213 21.2837 140.579 21.769C139.944 22.2544 139.627 22.5969 139.627 22.8396C139.627 22.911 139.742 22.9538 139.973 22.9538C140.204 22.9538 140.564 22.8682 141.04 22.7111C141.516 22.5541 141.862 22.4685 142.049 22.4685C142.237 22.4685 142.367 22.4827 142.424 22.497C142.554 22.5684 142.684 22.7111 142.842 22.9395C142.987 23.1679 143.059 23.3535 143.059 23.482C143.059 23.6104 142.929 23.7817 142.669 23.9958C142.41 24.21 142.122 24.367 141.804 24.4812C141.473 24.5954 141.256 24.681 141.155 24.7381C139.079 25.8944 138.041 26.6795 138.041 27.1077C138.041 27.8642 138.69 28.2497 140.002 28.2497C140.838 28.2497 141.689 27.9927 142.525 27.4646C143.246 27.022 143.895 26.5653 144.472 26.0942C145.049 25.6374 145.409 25.3519 145.568 25.2377C145.726 25.1235 145.842 25.0807 145.914 25.0807C146.173 25.0807 146.303 25.3662 146.303 25.9372C146.303 26.5082 146.274 26.8793 146.202 27.0506C146.13 27.2362 145.943 27.4503 145.611 27.7215C143.506 29.4202 141.502 30.2766 139.627 30.2766C138.618 30.2766 137.825 30.1339 137.219 29.8627C136.109 29.3631 135.561 28.6065 135.561 27.5788C135.561 26.237 136.498 25.2092 138.387 24.524C138.012 24.3527 137.767 24.1529 137.666 23.8817C137.551 23.6247 137.508 23.2107 137.508 22.6398C137.508 22.0688 137.782 21.4693 138.315 20.8269C138.848 20.1846 139.512 19.6564 140.29 19.2567C142.021 18.3289 143.578 17.8721 144.933 17.8721C145.265 17.8721 145.582 17.9434 145.928 18.1005C146.274 18.2575 146.433 18.4716 146.433 18.7571Z" fill="#292F36"/>
<path d="M0.27002 33.7454C4.06214 35.3156 7.92635 36.5289 11.8627 37.4567C15.7701 38.4274 19.7497 39.1126 23.7293 39.5408C25.7191 39.812 27.7233 39.8406 29.6986 40.0262C31.7028 40.0404 33.6926 40.1975 35.6824 40.0833L38.6671 40.0119C39.662 39.9976 40.6569 39.8691 41.6517 39.812C42.6466 39.7264 43.6415 39.6836 44.622 39.5551L47.5778 39.1411C51.543 38.7129 55.3928 37.7993 59.2282 36.7002C63.1068 35.6439 66.7692 34.245 70.6478 32.789C74.6129 31.3472 78.9097 30.4051 83.2642 30.8619C85.4126 31.1331 87.5754 31.8183 89.3345 33.0745C91.108 34.3163 92.3768 36.0864 93.1843 37.9421C91.9731 36.2862 90.4591 34.9302 88.7145 34.088C86.9698 33.2458 85.0521 32.9032 83.1488 32.9603C79.299 33.0174 75.5069 34.2878 71.9455 35.8865C68.3264 37.6566 64.4045 39.2553 60.4538 40.5829C56.4742 41.8533 52.3648 42.8668 48.1978 43.3807C39.9071 44.4655 31.4145 44.4798 23.2246 42.8382C19.1153 42.096 15.1069 40.9397 11.2282 39.4695C7.37844 37.9421 3.61516 36.1578 0.27002 33.7454Z" fill="#292F36"/>
<path d="M138.156 9.97832C134.941 8.62224 131.668 7.56592 128.351 6.738C125.05 5.86725 121.704 5.25345 118.345 4.82521C116.672 4.56827 114.971 4.51117 113.298 4.31133C111.611 4.2685 109.939 4.09721 108.252 4.16858C107.415 4.18286 106.565 4.18286 105.728 4.16858C104.892 4.16858 104.041 4.25423 103.205 4.28278C102.369 4.33988 101.518 4.35415 100.682 4.4398L98.173 4.73956C94.8135 5.01078 91.5548 5.69596 88.2962 6.53815C84.9943 7.32325 81.8655 8.43667 78.5347 9.55008C75.1175 10.6778 71.4119 11.3629 67.6918 10.8491C65.8607 10.5493 64.0151 9.90694 62.5588 8.76498C61.0737 7.63729 60.0643 6.09564 59.4443 4.48262C60.4681 5.8958 61.7369 7.05204 63.1932 7.76576C64.6495 8.47949 66.25 8.77925 67.8505 8.76498C71.0802 8.76498 74.2812 7.73722 77.3091 6.45251C80.3947 4.9965 83.7831 3.7118 87.1571 2.65548C90.5599 1.64199 94.1069 0.871164 97.6539 0.500026C104.734 -0.24225 111.972 -0.0709559 118.907 1.55634C122.382 2.28434 125.77 3.39776 129.015 4.76811C132.273 6.16702 135.417 7.79431 138.156 9.97832Z" fill="#292F36"/>
</svg>
