<svg width="41" height="40" viewBox="0 0 41 40" fill="none" xmlns="http://www.w3.org/2000/svg">
<path d="M0.853516 9.31839C0.853516 4.26893 4.94691 0.175537 9.99637 0.175537H31.2546C36.3041 0.175537 40.3975 4.26893 40.3975 9.31839V30.5766C40.3975 35.6261 36.3041 39.7195 31.2546 39.7195H9.99637C4.94691 39.7195 0.853516 35.6261 0.853516 30.5766V9.31839Z" fill="#001E36"/>
<path d="M14.8611 13.0223C16.7983 13.0223 18.2119 13.4399 19.1018 14.275C19.9916 15.1033 20.4366 16.2464 20.4366 17.7045C20.4366 18.3616 20.3373 18.9914 20.1388 19.5938C19.9403 20.1893 19.6152 20.7198 19.1634 21.1853C18.7184 21.6508 18.1229 22.0204 17.3768 22.2942C16.6306 22.5612 15.7099 22.6946 14.6147 22.6946H13.2491V28.0339H10.066V13.0223H14.8611ZM14.6968 15.6304H13.2491V20.0866H14.2964C14.8919 20.0866 15.4088 20.0079 15.8468 19.8505C16.2849 19.693 16.6238 19.4466 16.8634 19.1112C17.1029 18.7758 17.2227 18.3445 17.2227 17.8174C17.2227 17.0781 17.0174 16.5305 16.6067 16.1746C16.196 15.8118 15.5593 15.6304 14.6968 15.6304ZM31.033 24.625C31.033 25.4054 30.8482 26.0659 30.4785 26.6067C30.1157 27.1406 29.5716 27.5479 28.846 27.8286C28.1204 28.1024 27.2168 28.2393 26.1352 28.2393C25.3343 28.2393 24.6464 28.188 24.0714 28.0853C23.5032 27.9826 22.9282 27.8115 22.3464 27.5719V24.9844C22.9693 25.265 23.6367 25.4978 24.3486 25.6826C25.0674 25.8606 25.6971 25.9496 26.2379 25.9496C26.8471 25.9496 27.2818 25.8606 27.5419 25.6826C27.8089 25.4978 27.9424 25.2582 27.9424 24.9638C27.9424 24.7722 27.8876 24.601 27.7781 24.4505C27.6754 24.293 27.4495 24.1185 27.1004 23.9268C26.7513 23.7283 26.2037 23.4716 25.4576 23.1567C24.7388 22.8555 24.1467 22.5509 23.6812 22.2429C23.2226 21.9348 22.8803 21.572 22.6544 21.1545C22.4354 20.7301 22.3259 20.1927 22.3259 19.5424C22.3259 18.4814 22.7366 17.6839 23.558 17.15C24.3863 16.6092 25.4918 16.3388 26.8745 16.3388C27.5864 16.3388 28.2641 16.4107 28.9076 16.5545C29.5579 16.6982 30.2253 16.9275 30.9098 17.2424L29.9652 19.5013C29.397 19.2549 28.8596 19.053 28.3531 18.8955C27.8534 18.7381 27.3434 18.6594 26.8232 18.6594C26.3646 18.6594 26.0189 18.721 25.7861 18.8442C25.5534 18.9674 25.437 19.1557 25.437 19.4089C25.437 19.5938 25.4952 19.758 25.6116 19.9018C25.7348 20.0455 25.9675 20.2064 26.3098 20.3844C26.6589 20.5555 27.1689 20.778 27.8397 21.0518C28.49 21.3188 29.0547 21.5994 29.5339 21.8938C30.0131 22.1813 30.3827 22.5406 30.6428 22.9719C30.9029 23.3963 31.033 23.9473 31.033 24.625Z" fill="#30A8FF"/>
</svg>
