<svg width="95" height="96" viewBox="0 0 95 96" fill="none" xmlns="http://www.w3.org/2000/svg">
<rect y="0.893555" width="95" height="95" rx="20" fill="#FED8FF"/>
<path d="M27 42.8936H68M47.2974 29.8936L58.5294 31.3421C59.7977 31.5056 60.5888 32.8011 60.155 34.0041L56.7517 43.4415M47.2974 29.8936L35.4546 31.3573C34.1912 31.5135 33.3932 32.7946 33.8103 33.9974L37.085 43.4415M47.2974 29.8936L37.085 43.4415M47.2974 29.8936L56.7517 43.4415M37.085 43.4415L45.3347 67.233C45.964 69.0482 48.5414 69.0183 49.1286 67.1891L56.7517 43.4415M35.1555 29.8936H58.9032C60.3158 29.8936 61.6236 30.6386 62.3439 31.8536L67.6546 40.811C68.4708 42.1876 68.3879 43.9182 67.4439 45.2105L50.4929 68.4144C48.8828 70.6184 45.587 70.5981 44.0042 68.3745L27.4043 45.0531C26.5411 43.8403 26.4227 42.2485 27.0971 40.9214L31.5895 32.0814C32.2717 30.7391 33.6498 29.8936 35.1555 29.8936Z" stroke="#E074E3" stroke-width="2"/>
</svg>
