<svg width="95" height="96" viewBox="0 0 95 96" fill="none" xmlns="http://www.w3.org/2000/svg">
<rect y="0.893555" width="95" height="95" rx="20" fill="#C4F5C9"/>
<path d="M56 50.8936V36.7507C56 34.9321 55.1571 33.1879 53.6569 31.902C52.1566 30.616 50.1217 29.8936 48 29.8936C45.8783 29.8936 43.8434 30.616 42.3431 31.902C40.8429 33.1879 40 34.9321 40 36.7507V50.8936M37.5 45.8936H58.5C60.9853 45.8936 63 47.6317 63 49.7759V64.0112C63 66.1554 60.9853 67.8936 58.5 67.8936H37.5C35.0147 67.8936 33 66.1554 33 64.0112V49.7759C33 47.6317 35.0147 45.8936 37.5 45.8936Z" stroke="#5EBA67" stroke-width="2.5" stroke-linecap="round" stroke-linejoin="round"/>
</svg>
