<svg width="105" height="104" viewBox="0 0 105 104" fill="none" xmlns="http://www.w3.org/2000/svg">
<g style="mix-blend-mode:multiply">
<path d="M52.3781 102.556C80.5202 102.556 103.334 79.9708 103.334 52.1101C103.334 24.2495 80.5202 1.66394 52.3781 1.66394C24.236 1.66394 1.42236 24.2495 1.42236 52.1101C1.42236 79.9708 24.236 102.556 52.3781 102.556Z" fill="white"/>
<path d="M52.3784 103.27C23.887 103.27 0.70166 80.3166 0.70166 52.1101C0.70166 23.9036 23.887 0.950195 52.3784 0.950195C80.8698 0.950195 104.055 23.9036 104.055 52.1101C104.055 80.3166 80.8698 103.27 52.3784 103.27ZM52.3784 2.37765C24.68 2.37765 2.14353 24.6887 2.14353 52.1101C2.14353 79.5315 24.68 101.843 52.3784 101.843C80.0767 101.843 102.613 79.5315 102.613 52.1101C102.613 24.6887 80.0767 2.37765 52.3784 2.37765Z" fill="#292F36"/>
<path d="M59.6454 6.78846C59.9914 6.81701 60.2942 6.83129 60.5393 6.83129L60.5105 7.05968C60.1068 7.11678 59.7607 7.41654 59.4868 7.98753L56.0551 14.7822L55.9542 14.7679L55.8677 14.7537L53.6904 7.17388C53.5462 6.67427 53.3011 6.40305 52.9551 6.36023L52.9839 6.13184C53.3011 6.18893 53.7193 6.23176 54.2383 6.28886C54.916 6.34595 55.4207 6.38878 55.7523 6.38878L55.7235 6.61717C55.4207 6.6029 55.2044 6.61717 55.0746 6.65999C54.9449 6.70282 54.8728 6.81701 54.8583 6.95976C54.8439 7.08823 54.8728 7.2738 54.9449 7.51647L56.5453 13.3119L58.9244 8.57278C59.1263 8.18737 59.2272 7.87333 59.2561 7.64494C59.2849 7.40227 59.2128 7.2167 59.0542 7.08823C58.8956 6.95976 58.6361 6.88839 58.29 6.84556L58.3188 6.61717C58.737 6.68854 59.184 6.74564 59.6454 6.78846Z" fill="#292F36"/>
<path d="M69.3349 9.80041C69.1907 9.80041 69.0754 9.85751 68.9888 9.9717C68.9023 10.0859 68.8014 10.2715 68.7005 10.5427L66.6386 15.967C66.5377 16.2382 66.48 16.4523 66.48 16.5951C66.48 16.7378 66.5232 16.852 66.6242 16.9377C66.7251 17.0233 66.9125 17.1232 67.1721 17.2374L67.0856 17.4516C66.7539 17.3088 66.2925 17.1232 65.7014 16.8949C65.067 16.6522 64.5911 16.4952 64.2739 16.3952L64.3604 16.1811C64.6344 16.2668 64.8363 16.3096 64.966 16.3096C65.0958 16.3096 65.2256 16.2525 65.3121 16.1383C65.3986 16.0241 65.4995 15.8385 65.6004 15.5673L67.6623 10.143C67.7633 9.87178 67.8209 9.65766 67.8209 9.51492C67.8209 9.37217 67.7777 9.25798 67.6767 9.17233C67.5758 9.08668 67.3884 8.98676 67.1288 8.87257L67.2153 8.65845C67.5181 8.78692 67.9795 8.97249 68.614 9.21515C69.2051 9.44355 69.6809 9.60057 70.027 9.70049L69.9405 9.91461C69.6809 9.82896 69.4791 9.78614 69.3349 9.80041Z" fill="#292F36"/>
<path d="M82.1675 17.3516C82.0233 17.323 81.8791 17.3658 81.7493 17.4515C81.6196 17.5371 81.4609 17.7084 81.2879 17.9511L77.1065 23.561L76.8902 23.404L77.4525 14.3825L73.7469 19.35C73.5739 19.5927 73.4586 19.7925 73.4009 19.9495C73.3432 20.1066 73.372 20.2493 73.4441 20.3921C73.5162 20.5348 73.6893 20.6918 73.9344 20.8917L73.7902 21.0772C73.5739 20.8917 73.2567 20.649 72.8386 20.335C72.4637 20.0637 72.1609 19.8496 71.9302 19.7211L72.0744 19.5356C72.3051 19.6926 72.4925 19.7782 72.6367 19.7925C72.7809 19.8211 72.9251 19.7782 73.0548 19.6926C73.1846 19.5927 73.3432 19.4357 73.5162 19.193L76.9191 14.6251C77.0921 14.3825 77.2074 14.1969 77.2507 14.0684C77.2939 13.94 77.2795 13.8115 77.2074 13.6973C77.1353 13.5831 76.9911 13.4404 76.7604 13.2548L76.9046 13.0692C77.0921 13.2405 77.3805 13.4689 77.7698 13.7401C78.0581 13.9542 78.3032 14.1255 78.5339 14.254L78.0725 21.8195L81.0716 17.7941C81.2447 17.5514 81.3744 17.3516 81.4177 17.1946C81.4609 17.0375 81.4465 16.8948 81.3744 16.752C81.3023 16.6093 81.1293 16.438 80.8842 16.2524L81.0284 16.0669C81.2447 16.2524 81.5619 16.4951 81.98 16.8091C82.3549 17.0804 82.6577 17.2945 82.8884 17.4229L82.7442 17.6085C82.4991 17.4658 82.3117 17.3658 82.1675 17.3516Z" fill="#292F36"/>
<path d="M86.9979 23.7894C87.3728 23.5182 87.7621 23.2184 88.1802 22.8473C88.5407 23.3897 89.1751 24.289 90.0835 25.5595C90.9919 26.8156 91.6407 27.7006 92.03 28.2145C91.5398 28.5 91.1216 28.7569 90.7467 29.0139C90.4295 29.2423 90.17 29.4421 89.9825 29.5991L89.8239 29.385C90.2853 28.9853 90.6025 28.657 90.79 28.4144C90.9774 28.1717 91.0495 27.9148 91.0351 27.6435C91.0207 27.3723 90.8477 27.044 90.5737 26.6443L90.1988 26.1304L84.7341 29.9846C84.4746 30.1701 84.2871 30.3414 84.2006 30.4699C84.1141 30.5984 84.0853 30.7554 84.143 30.9267C84.1862 31.0837 84.316 31.3121 84.5034 31.5976L84.316 31.7403C84.0997 31.3977 83.7681 30.9124 83.3355 30.3271C82.8741 29.6848 82.5281 29.228 82.2974 28.9425L82.4848 28.7998C82.7011 29.071 82.8741 29.2566 83.0183 29.3565C83.1625 29.4564 83.3067 29.4849 83.4653 29.4421C83.6239 29.3993 83.8402 29.2851 84.0997 29.0995L89.5644 25.2454L89.1895 24.7315C88.9011 24.3318 88.6416 24.0892 88.3965 23.975C88.1514 23.8608 87.8774 23.8465 87.589 23.9464C87.3007 24.0464 86.8825 24.2319 86.349 24.5317L86.1904 24.3176C86.4067 24.2034 86.6662 24.0321 86.9979 23.7894Z" fill="#292F36"/>
<path d="M89.7659 43.6025L89.5352 43.6739C89.4487 43.3598 89.3333 42.9601 89.1603 42.4748C88.944 41.8467 88.771 41.3757 88.6412 41.0616L88.8719 40.9902C88.9728 41.2615 89.0882 41.4613 89.1747 41.5612C89.2756 41.6612 89.4054 41.6897 89.5496 41.6326C89.6794 41.5898 89.838 41.4899 90.0254 41.3328L91.6259 40.0339L90.7175 37.3645L89.3766 37.3074C88.944 37.2789 88.6124 37.3074 88.3817 37.3931C88.151 37.4787 88.0068 37.6072 87.9491 37.7927C87.9058 37.9783 87.9347 38.2495 88.0356 38.5779L87.8049 38.6492C87.6896 38.221 87.5454 37.7928 87.4012 37.3645C87.2858 37.0362 87.1849 36.765 87.084 36.5509L87.3147 36.4795C87.5165 36.8221 87.9491 37.0077 88.5835 37.0219L96.2543 37.3645L96.312 37.5358L90.1984 42.5747C89.8235 42.9316 89.6794 43.2599 89.7659 43.6025ZM94.7692 37.5358L90.9915 37.3788L91.8422 39.8911L94.7692 37.5358Z" fill="#292F36"/>
<path d="M90.8185 54.5226C90.9626 54.4655 91.0347 54.3941 91.0347 54.2942C91.0347 54.2371 91.0203 54.1943 90.9915 54.1515C90.9626 54.1086 90.905 54.023 90.8185 53.9088C90.6022 53.6376 90.4436 53.3521 90.3282 53.0666C90.2129 52.7811 90.1552 52.4528 90.1552 52.0959C90.1408 51.2965 90.2994 50.6114 90.6166 50.0261C90.9482 49.4409 91.4096 48.9983 92.044 48.6843C92.6641 48.3703 93.4138 48.2132 94.2934 48.199C95.2018 48.1847 95.9948 48.3274 96.6725 48.6415C97.3501 48.9555 97.8836 49.3838 98.2585 49.9547C98.6334 50.5257 98.8353 51.1681 98.8353 51.8818C98.8353 52.1958 98.8064 52.4813 98.7488 52.724C98.6911 52.9667 98.6046 53.1808 98.5036 53.3664C98.4027 53.5519 98.2729 53.766 98.0999 53.9944C98.0278 54.0944 97.9846 54.18 97.9846 54.2371C97.9846 54.3798 98.2297 54.4798 98.7055 54.5226V54.7938C98.2008 54.7653 97.2925 54.7653 95.9948 54.7938V54.5226C96.4129 54.4512 96.759 54.3656 97.0329 54.2799C97.3069 54.1943 97.5376 54.0658 97.7394 53.9088C98.0134 53.6804 98.2441 53.3806 98.4027 53.0095C98.5613 52.6384 98.6334 52.2672 98.6334 51.8675C98.619 51.3536 98.446 50.9111 98.0999 50.5257C97.7539 50.1403 97.2636 49.8548 96.6436 49.6407C96.0092 49.4409 95.2883 49.3409 94.452 49.3552C93.5003 49.3695 92.7361 49.4837 92.1306 49.6978C91.525 49.9119 91.0924 50.226 90.804 50.6399C90.5157 51.0539 90.3859 51.582 90.4003 52.2244C90.4147 52.6954 90.5445 53.0951 90.7896 53.4377C90.8906 53.5805 90.9771 53.6661 91.078 53.7089C91.1645 53.7518 91.2943 53.766 91.4529 53.766L92.592 53.7518C92.9236 53.7518 93.1543 53.7089 93.3129 53.6518C93.4571 53.5947 93.5724 53.4806 93.6157 53.3093C93.6734 53.1522 93.7022 52.8953 93.7022 52.5527H93.9329C93.9185 52.9381 93.9041 53.4806 93.9185 54.2086C93.9329 54.751 93.9473 55.1649 93.9762 55.4219H93.7455C93.731 55.2363 93.6878 55.1078 93.6445 55.0365C93.6013 54.9651 93.5003 54.908 93.3706 54.8795C93.2408 54.8509 93.0245 54.8366 92.7217 54.8509L90.3859 54.8937V54.6653C90.5157 54.6082 90.6743 54.5797 90.8185 54.5226Z" fill="#292F36"/>
<path d="M89.103 66.6701C88.6849 66.5417 88.1947 66.4132 87.6323 66.299C87.8198 65.7994 88.0937 64.9572 88.483 63.7581C88.9444 62.3307 89.2761 61.2458 89.4779 60.5178L89.7086 60.5892C89.6365 60.8604 89.6077 61.0603 89.6077 61.203C89.6221 61.3457 89.6798 61.4457 89.7951 61.5313C89.9105 61.617 90.1123 61.7026 90.3863 61.7883L95.9663 63.5298C96.2547 63.6154 96.4566 63.6582 96.6008 63.6582C96.745 63.6582 96.8603 63.6011 96.9468 63.4869C97.0333 63.3727 97.1198 63.1872 97.2208 62.9302L97.4515 63.0016C97.1919 63.7296 96.8459 64.8002 96.3845 66.2276C96.0384 67.3125 95.7933 68.0976 95.678 68.5687C95.2022 68.3688 94.7696 68.1975 94.3659 68.0833C94.0775 67.9977 93.8324 67.9263 93.6594 67.8978L93.7459 67.6408C94.2505 67.7407 94.6398 67.7836 94.8994 67.7836C95.1589 67.7836 95.3752 67.6979 95.5482 67.5266C95.7212 67.3696 95.8654 67.0841 95.9952 66.6987L96.2836 65.7709C96.3701 65.4996 96.4133 65.2998 96.3989 65.1713C96.3845 65.0429 96.3412 64.9287 96.2259 64.843C96.1105 64.7574 95.9231 64.6717 95.6347 64.5861L92.9817 63.7581L92.751 64.5004C92.6356 64.8716 92.6645 65.157 92.8519 65.3569C93.0393 65.5567 93.2412 65.6995 93.4719 65.7994C93.7026 65.8993 93.8468 65.9707 93.9045 65.9992L93.818 66.2562C93.4575 66.1134 93.1114 65.985 92.7654 65.8851L92.2319 65.728C91.857 65.6138 91.3091 65.4568 90.617 65.2998L90.7035 65.0429C90.7612 65.0571 90.9486 65.0857 91.2658 65.157C91.5831 65.2141 91.857 65.1856 92.0733 65.0714C92.2896 64.9572 92.4338 64.7431 92.5347 64.4433L92.7654 63.701L90.0547 62.8588C89.7663 62.7732 89.5644 62.7304 89.4202 62.7304C89.2761 62.7304 89.1607 62.7875 89.0886 62.9017C89.0021 63.0159 88.9156 63.2014 88.8291 63.4727L88.5695 64.2863C88.4254 64.7574 88.3677 65.1285 88.4254 65.3997C88.4686 65.6852 88.6128 65.9136 88.8579 66.1134C89.103 66.299 89.4779 66.5131 89.9826 66.7415L89.8961 66.9985C89.723 66.87 89.4491 66.7843 89.103 66.6701Z" fill="#292F36"/>
<path d="M84.9933 84.1851C85.051 84.0566 85.0366 83.9281 84.9789 83.7997C84.9212 83.6712 84.777 83.5142 84.5607 83.3001L80.3216 79.2889C80.1054 79.0891 79.9323 78.9606 79.8026 78.9035C79.6728 78.8464 79.543 78.8464 79.4133 78.9035C79.2835 78.9606 79.1249 79.0891 78.923 79.2889L78.75 79.1319C79.024 78.8892 79.37 78.5324 79.817 78.0899C80.2784 77.6045 80.6244 77.2334 80.8407 76.9907L81.0137 77.1477C80.8263 77.3619 80.7109 77.5332 80.6533 77.6473C80.5956 77.7758 80.61 77.9043 80.6677 78.0328C80.7254 78.1612 80.8696 78.3183 81.0858 78.5324L85.3249 82.5435C85.5412 82.7434 85.7142 82.8718 85.844 82.9289C85.9738 82.986 86.1035 82.986 86.2333 82.9289C86.3631 82.8718 86.5217 82.7434 86.7236 82.5435L86.8966 82.7005C86.6515 82.9147 86.291 83.2715 85.8296 83.7568C85.3826 84.2136 85.051 84.5848 84.8203 84.856L84.6473 84.699C84.8203 84.4849 84.9356 84.3136 84.9933 84.1851Z" fill="#292F36"/>
<path d="M72.9826 92.8924C73.0691 92.764 73.0835 92.6355 73.0546 92.4785C73.0258 92.3215 72.9249 92.1216 72.7663 91.8504L69.1904 85.8408L69.4211 85.6981L77.5821 89.7378L74.4244 84.4276C74.2658 84.1707 74.1361 83.9851 74.0063 83.8852C73.8765 83.7853 73.7323 83.7424 73.5737 83.7567C73.4151 83.771 73.1988 83.8566 72.9249 83.9994L72.7951 83.7995C73.0546 83.6854 73.4007 83.4855 73.8477 83.2286C74.2514 82.9859 74.5542 82.8003 74.7705 82.6433L74.8858 82.8432C74.6551 82.9859 74.4965 83.1286 74.4244 83.2571C74.3379 83.3856 74.3235 83.5141 74.3523 83.6711C74.3812 83.8281 74.4821 84.0279 74.6407 84.2992L77.5533 89.1953C77.6975 89.4523 77.8272 89.6236 77.9426 89.7092C78.0579 89.7949 78.1733 89.8377 78.3175 89.8091C78.4473 89.7806 78.6491 89.7092 78.8942 89.5807L79.0096 89.7806C78.7789 89.8948 78.4617 90.0661 78.0435 90.3087C77.7407 90.48 77.4812 90.6513 77.2649 90.7941L70.416 87.411L72.9826 91.7219C73.1412 91.9789 73.2709 92.1644 73.4007 92.2643C73.516 92.3643 73.6602 92.4071 73.8333 92.3928C74.0063 92.3785 74.2226 92.2929 74.4965 92.1502L74.6119 92.35C74.3523 92.4642 74.0063 92.664 73.5593 92.921C73.1556 93.1636 72.8528 93.3492 72.6365 93.5062L72.5212 93.3064C72.7374 93.1494 72.896 93.0066 72.9826 92.8924Z" fill="#292F36"/>
<path d="M65.0525 94.7625C65.1534 95.205 65.2832 95.6903 65.4562 96.2042C64.8074 96.3184 63.726 96.5468 62.1976 96.8608C60.6692 97.1891 59.6022 97.4318 58.9678 97.5888C58.8957 97.0321 58.8236 96.5468 58.7227 96.1043C58.6361 95.7189 58.5641 95.4048 58.4775 95.1764L58.7371 95.1193C58.9245 95.7046 59.0975 96.1186 59.2562 96.3898C59.4148 96.661 59.6166 96.8323 59.8762 96.9179C60.1357 97.0036 60.5106 96.9893 60.9864 96.8894L61.6064 96.7609L60.1934 90.266C60.1213 89.952 60.0492 89.7236 59.9482 89.5951C59.8473 89.4666 59.732 89.381 59.5589 89.3667C59.3859 89.3381 59.1264 89.3667 58.7803 89.4238L58.7371 89.1954C59.1408 89.1383 59.7176 89.0241 60.4385 88.8671C61.2027 88.6958 61.7794 88.5673 62.1399 88.4674L62.1832 88.6958C61.8371 88.7814 61.6064 88.8671 61.4622 88.9527C61.318 89.0384 61.2315 89.1669 61.2027 89.3239C61.1738 89.4809 61.1883 89.7236 61.2604 90.0376L62.6734 96.5325L63.2934 96.4041C63.7692 96.3041 64.1153 96.1614 64.3171 95.9758C64.519 95.7902 64.6343 95.5476 64.6632 95.2478C64.692 94.948 64.6776 94.4913 64.6055 93.8917L64.865 93.8346C64.9083 94.063 64.966 94.3771 65.0525 94.7625Z" fill="#292F36"/>
<path d="M45.9186 90.7513C45.9619 90.3088 45.9763 89.8091 45.9763 89.2524C46.5098 89.3238 47.4038 89.4095 48.6726 89.5237C50.1722 89.6521 51.3112 89.7521 52.0898 89.7949L52.0754 90.0233C51.7871 90.009 51.5852 90.0233 51.4554 90.0661C51.3257 90.1089 51.2247 90.1803 51.167 90.3088C51.1094 90.4372 51.0661 90.6513 51.0373 90.9368L50.5182 96.718C50.4894 97.0035 50.5038 97.2176 50.5326 97.3604C50.5615 97.5031 50.648 97.603 50.7777 97.6601C50.9075 97.7172 51.1094 97.7743 51.3833 97.8029L51.3689 98.0313C50.6047 97.9456 49.4656 97.8314 47.9661 97.703C46.8126 97.603 45.9907 97.5459 45.5005 97.5174C45.6014 97.0178 45.6735 96.561 45.7023 96.147C45.7312 95.8473 45.7456 95.6046 45.7312 95.419L46.0051 95.4476C46.0196 95.9615 46.0484 96.3326 46.1205 96.5896C46.1782 96.8465 46.3079 97.0321 46.5098 97.1605C46.6972 97.289 47.0145 97.3747 47.4182 97.4032L48.3987 97.4888C48.687 97.5174 48.8889 97.5031 49.0187 97.4746C49.1484 97.446 49.2494 97.3604 49.307 97.2319C49.3647 97.1034 49.408 96.8893 49.4368 96.6038L49.6819 93.8631L48.9033 93.7917C48.514 93.7632 48.24 93.8488 48.0814 94.0772C47.9373 94.3056 47.8219 94.534 47.7786 94.7767C47.721 95.0194 47.6921 95.1764 47.6777 95.2477L47.4038 95.2192C47.4614 94.8338 47.5047 94.4769 47.5479 94.1201L47.5912 93.5633C47.62 93.1637 47.6489 92.6212 47.6777 91.9075L47.9517 91.9361C47.9517 91.9932 47.9661 92.1787 47.9661 92.507C47.9805 92.8353 48.0526 93.0923 48.2256 93.2636C48.3842 93.4492 48.6294 93.5491 48.9466 93.5776L49.7252 93.649L49.9703 90.8512C49.9991 90.5657 49.9847 90.3516 49.9559 90.2088C49.927 90.0804 49.8405 89.9804 49.7108 89.9233C49.581 89.8662 49.3791 89.8234 49.1052 89.7949L48.24 89.7235C47.7498 89.6807 47.3749 89.7092 47.101 89.8234C46.8414 89.9233 46.6396 90.1232 46.4954 90.3944C46.3512 90.6656 46.2358 91.0796 46.1205 91.622L45.8465 91.5935C45.8465 91.3793 45.8754 91.0939 45.9186 90.7513Z" fill="#292F36"/>
<path d="M34.5713 85.4555C34.7876 85.4127 35.0327 85.4555 35.2923 85.5697C35.5951 85.6982 35.7969 85.8837 35.9123 86.1264C36.0276 86.3833 36.042 86.7402 35.9699 87.2113L35.7537 88.3818C35.6816 88.7957 35.6383 89.1098 35.6239 89.3524C35.6095 89.5808 35.6672 89.795 35.7681 89.9805C35.869 90.1661 36.0565 90.3088 36.3304 90.423L37.3686 90.8513L38.4211 88.3675C38.5365 88.0963 38.5942 87.8964 38.6086 87.7537C38.623 87.611 38.5653 87.4968 38.4644 87.3968C38.3635 87.2969 38.1904 87.197 37.9309 87.0828L38.0174 86.8687C38.349 87.0257 38.796 87.2255 39.3872 87.4682C40.0072 87.7251 40.483 87.9107 40.8002 88.0106L40.7137 88.2248C40.4398 88.1248 40.2379 88.082 40.1081 88.0677C39.9639 88.0677 39.8486 88.1106 39.7621 88.2248C39.6611 88.3247 39.5602 88.5102 39.4449 88.7815L37.1811 94.1344C37.0658 94.4056 37.0081 94.6055 36.9937 94.7482C36.9793 94.891 37.0369 95.0052 37.1379 95.1051C37.2388 95.205 37.4118 95.3049 37.6714 95.4334L37.5848 95.6475C37.282 95.5048 36.8495 95.3049 36.2727 95.0623C35.9844 94.9481 35.6816 94.8196 35.3355 94.6769C34.9895 94.5341 34.7588 94.4485 34.629 94.3914C34.0667 94.1487 33.6197 93.8775 33.2881 93.5492C32.9564 93.2208 32.769 92.8783 32.6825 92.5071C32.596 92.136 32.6392 91.7791 32.7978 91.4223C32.9132 91.1368 33.1006 90.8798 33.3602 90.6514C33.6197 90.423 33.9513 90.2517 34.355 90.1661C34.7588 90.0804 35.249 90.0947 35.7825 90.2232L35.6527 90.1518C35.3499 89.9663 35.1192 89.7807 34.9751 89.5808C34.8309 89.3953 34.7299 89.1812 34.7011 88.9528C34.6578 88.7244 34.6723 88.4389 34.7299 88.0963L34.9318 86.883C34.9751 86.6403 35.0039 86.4547 35.0039 86.312C35.0039 86.1692 34.9895 86.055 34.9462 85.9694C34.903 85.8837 34.8309 85.8124 34.7299 85.7838C34.6146 85.7267 34.4992 85.7267 34.3983 85.7553C34.2974 85.7838 34.1532 85.8552 33.9657 85.9551L33.8504 85.7695C34.1099 85.6125 34.355 85.4983 34.5713 85.4555ZM35.2923 90.5372C34.9462 90.5801 34.6723 90.7085 34.456 90.9226C34.2397 91.1368 34.0523 91.4223 33.8937 91.7934C33.6485 92.3786 33.5909 92.8925 33.7495 93.3065C33.9081 93.7204 34.2974 94.063 34.9462 94.3343C35.1769 94.4342 35.3499 94.477 35.4941 94.4627C35.6239 94.4627 35.7392 94.4056 35.8402 94.2914C35.9411 94.1772 36.042 93.9917 36.143 93.7347L37.2676 91.0797L36.5323 90.7799C36.0565 90.5801 35.6383 90.4944 35.2923 90.5372Z" fill="#292F36"/>
<path d="M23.3244 87.3968C23.4542 87.4396 23.584 87.4111 23.6993 87.3397C23.8147 87.2683 23.9733 87.1113 24.1607 86.8829L27.7798 82.3151C27.9673 82.0867 28.0826 81.9011 28.1259 81.7726C28.1691 81.6442 28.1547 81.5157 28.0826 81.4015C28.0105 81.2873 27.8663 81.1303 27.65 80.9447L27.7942 80.7592C28.0682 81.0018 28.4431 81.3159 28.9477 81.7013C29.4812 82.1152 29.8849 82.415 30.1589 82.6006L30.0147 82.7861C29.784 82.6148 29.5966 82.5149 29.4668 82.4864C29.337 82.4435 29.2073 82.4578 29.0919 82.5435C28.9766 82.6148 28.818 82.7719 28.6305 83.0003L25.0114 87.5681C24.824 87.7965 24.7086 87.9821 24.6654 88.1105C24.6221 88.239 24.6365 88.3675 24.7086 88.4817C24.7807 88.5959 24.9249 88.7529 25.1412 88.9385L24.997 89.124C24.7519 88.9099 24.3626 88.5959 23.8291 88.1676C23.3244 87.7822 22.9207 87.4825 22.6323 87.2826L22.7765 87.097C23.0216 87.2541 23.1947 87.354 23.3244 87.3968Z" fill="#292F36"/>
<path d="M14.01 77.2334C13.9523 76.591 14.0965 75.9487 14.4281 75.3349C14.7742 74.7068 15.2932 74.1501 16.0142 73.6219C16.7207 73.1223 17.4272 72.794 18.1626 72.6656C18.8979 72.5371 19.5756 72.5799 20.21 72.8226C20.8444 73.0652 21.3779 73.4792 21.7961 74.0645C22.2431 74.664 22.4882 75.2921 22.5458 75.9344C22.6035 76.5768 22.4593 77.2191 22.1277 77.8329C21.7817 78.461 21.2626 79.0177 20.5416 79.5459C19.8351 80.0455 19.1286 80.3738 18.3933 80.5023C17.6723 80.6307 16.9802 80.5879 16.3458 80.3452C15.7114 80.1026 15.1779 79.6886 14.7597 79.1176C14.3128 78.5038 14.0676 77.8758 14.01 77.2334ZM16.1728 79.7743C16.6774 79.8742 17.2542 79.8314 17.8886 79.6315C18.523 79.4317 19.1574 79.1034 19.8207 78.618C20.484 78.147 21.003 77.6331 21.3635 77.0907C21.7384 76.5482 21.9403 76.0058 21.9691 75.4919C22.0124 74.978 21.8826 74.5212 21.6086 74.1358C21.3058 73.7361 20.9165 73.4792 20.3975 73.3793C19.8928 73.2794 19.3161 73.3222 18.6816 73.522C18.0472 73.7219 17.4128 74.0502 16.7495 74.5212C16.0863 74.9923 15.5672 75.5062 15.2067 76.0629C14.8318 76.6053 14.63 77.1335 14.5867 77.6616C14.5435 78.1755 14.6732 78.6323 14.9472 79.0177C15.25 79.4174 15.6537 79.6743 16.1728 79.7743Z" fill="#292F36"/>
<path d="M15.1201 60.0468C15.2931 60.1753 15.4229 60.3894 15.5094 60.6749C15.6103 60.9747 15.5959 61.2601 15.4806 61.5028C15.3652 61.7598 15.0913 62.0024 14.6731 62.2451L13.6206 62.8303C13.2601 63.0445 12.9861 63.2158 12.7987 63.3585C12.6113 63.5013 12.4815 63.6725 12.4094 63.8724C12.3373 64.0722 12.3373 64.3006 12.4238 64.5861L12.7554 65.6567L15.3508 64.8573C15.6392 64.7717 15.8266 64.686 15.942 64.6004C16.0573 64.5147 16.115 64.4005 16.1294 64.2721C16.1438 64.1436 16.1006 63.9295 16.0285 63.6583L16.2592 63.5869C16.3457 63.9295 16.4755 64.4148 16.6773 65.0144C16.8792 65.6567 17.0378 66.1278 17.1531 66.4275L16.9224 66.4989C16.8215 66.2277 16.735 66.0421 16.6485 65.9422C16.562 65.8423 16.4466 65.7709 16.3024 65.7709C16.1583 65.7709 15.942 65.7995 15.668 65.8994L10.0736 67.6123C9.78518 67.698 9.59774 67.7836 9.48239 67.8693C9.36704 67.9549 9.30936 68.0691 9.29495 68.1976C9.28053 68.3403 9.32378 68.5402 9.39588 68.8114L9.16518 68.8828C9.09308 68.5687 8.96331 68.1119 8.77587 67.5124C8.68936 67.2269 8.57401 66.8986 8.45866 66.556C8.34331 66.2134 8.2568 65.9707 8.21354 65.8423C8.0261 65.257 7.96842 64.7431 8.01168 64.2863C8.05494 63.8296 8.19912 63.4584 8.42982 63.1587C8.66052 62.8589 8.96331 62.6591 9.3382 62.5449C9.62658 62.4592 9.94379 62.4307 10.2898 62.4735C10.6359 62.5163 10.9675 62.6591 11.3136 62.916C11.6596 63.1729 11.948 63.5441 12.1931 64.0437L12.1787 63.9009C12.1354 63.5441 12.121 63.2586 12.1787 63.0159C12.2364 62.7732 12.3373 62.5734 12.4815 62.4021C12.6401 62.2308 12.8708 62.0452 13.1736 61.874L14.2406 61.2459C14.4568 61.1317 14.6299 61.0175 14.7308 60.9318C14.8317 60.8462 14.9182 60.7605 14.9615 60.6749C15.0048 60.5892 15.0048 60.4893 14.9759 60.3894C14.9327 60.2609 14.875 60.1753 14.7885 60.1182C14.702 60.0611 14.5578 59.9897 14.3559 59.9183L14.428 59.7042C14.7164 59.8041 14.9615 59.9183 15.1201 60.0468ZM11.674 63.8724C11.4289 63.644 11.1405 63.5155 10.8377 63.487C10.535 63.4584 10.1889 63.5013 9.7996 63.6297C9.1796 63.8153 8.76145 64.1151 8.53075 64.5005C8.30005 64.8859 8.30005 65.414 8.50192 66.0564C8.57401 66.2848 8.66052 66.4561 8.74703 66.556C8.83355 66.6559 8.96331 66.713 9.1075 66.713C9.25169 66.713 9.46797 66.6702 9.72751 66.5988L12.4959 65.7424L12.2652 64.9858C12.121 64.4719 11.9192 64.1008 11.674 63.8724Z" fill="#292F36"/>
<path d="M14.0101 46.5003C14.558 46.2576 14.8897 45.8008 15.0338 45.1157C15.0771 44.8587 15.0771 44.6018 15.005 44.3591C14.9329 44.1164 14.8031 43.9023 14.6013 43.7168C14.3994 43.5312 14.1255 43.4027 13.765 43.3456C13.4622 43.2885 13.1882 43.3171 12.9287 43.417C12.6692 43.5169 12.4096 43.6739 12.1645 43.8881C11.9194 44.1022 11.631 44.3877 11.3138 44.7445C10.9533 45.1442 10.6361 45.4725 10.3622 45.7009C10.0882 45.9436 9.78543 46.1149 9.4538 46.2433C9.12217 46.3718 8.74728 46.3861 8.32914 46.3147C7.89658 46.2291 7.53611 46.0721 7.27657 45.8151C7.01703 45.5582 6.82959 45.2584 6.74308 44.9015C6.65657 44.5447 6.65657 44.1735 6.72866 43.7739C6.77192 43.5312 6.82959 43.3456 6.90169 43.1743C6.97378 43.003 7.04587 42.8746 7.13238 42.7746C7.2189 42.6747 7.30541 42.5605 7.42076 42.4463C7.56495 42.2893 7.63704 42.1751 7.66588 42.0895C7.6803 42.0181 7.65146 41.961 7.57937 41.9039C7.50727 41.8468 7.3775 41.804 7.20448 41.7469L7.24773 41.4899C7.69471 41.6041 8.47333 41.7754 9.6124 41.9895L9.56915 42.2465C9.16542 42.2037 8.79054 42.2179 8.41565 42.3036C8.05518 42.3749 7.73797 42.532 7.47843 42.7746C7.2189 43.003 7.04587 43.3313 6.97378 43.731C6.9161 44.0022 6.93052 44.2449 7.00262 44.4876C7.07471 44.7302 7.20448 44.9158 7.3775 45.0728C7.56495 45.2299 7.78123 45.3298 8.04076 45.3869C8.45891 45.4582 8.81938 45.4012 9.12217 45.2013C9.42496 45.0015 9.71334 44.7445 9.98729 44.4448C10.2612 44.145 10.4343 43.9451 10.5352 43.8452C10.9389 43.417 11.2706 43.0887 11.5445 42.846C11.8185 42.6033 12.1213 42.432 12.4529 42.3179C12.7845 42.2037 13.145 42.1894 13.5343 42.2608C14.0101 42.3464 14.3994 42.532 14.6878 42.8032C14.9762 43.0887 15.1636 43.417 15.2645 43.8167C15.3655 44.2164 15.3655 44.6446 15.279 45.1014C15.2069 45.4725 15.1204 45.758 14.9906 45.9864C14.8752 46.2148 14.7166 46.4146 14.5436 46.6002C14.3994 46.7572 14.3273 46.8714 14.2985 46.9571C14.2841 47.0284 14.3129 47.0855 14.385 47.1426C14.4571 47.1997 14.5869 47.2568 14.7599 47.2997L14.7166 47.5566C14.2985 47.4424 13.3757 47.2568 11.9482 46.9999L11.9915 46.743C12.7989 46.8143 13.4622 46.743 14.0101 46.5003Z" fill="#292F36"/>
<path d="M11.1552 34.4667C10.7515 34.2526 10.2901 34.0528 9.771 33.8529C10.0882 33.2962 10.6217 32.3256 11.3426 30.9409C12.0636 29.5706 12.5682 28.5999 12.8422 28.0146C13.318 28.3144 13.7506 28.5714 14.1399 28.7712C14.4859 28.9568 14.7887 29.0852 15.0194 29.1852L14.8896 29.4278C14.3129 29.1994 13.8803 29.0567 13.5775 29.0139C13.2747 28.9568 13.0008 29.0139 12.7701 29.1566C12.5394 29.2994 12.3087 29.5848 12.0924 30.0131L11.804 30.5841L17.759 33.6531C18.0473 33.8101 18.278 33.8815 18.4366 33.8958C18.5953 33.91 18.7394 33.8672 18.8692 33.753C18.999 33.6388 19.1432 33.4247 19.3162 33.1249L19.5325 33.2391C19.3162 33.596 19.0422 34.0956 18.6962 34.7522C18.3357 35.4374 18.0762 35.9656 17.9176 36.2939L17.7013 36.1797C17.8455 35.8656 17.9464 35.623 17.9608 35.466C17.9897 35.2947 17.9464 35.1519 17.8311 35.0234C17.7157 34.895 17.5283 34.7665 17.2399 34.6095L11.285 31.5262L10.9822 32.0829C10.7515 32.5111 10.6505 32.8537 10.665 33.1249C10.6794 33.3962 10.7947 33.6388 11.011 33.8529C11.2273 34.0671 11.5878 34.3525 12.1068 34.6809L11.9771 34.9235C11.7896 34.8093 11.5012 34.6523 11.1552 34.4667Z" fill="#292F36"/>
<path d="M21.3346 18.0654C21.5798 17.8228 21.7816 17.5944 21.9258 17.4231L22.0988 17.5944C22.0123 17.7229 21.9691 17.9084 21.9835 18.1225C21.9979 18.3367 22.0556 18.6364 22.1709 18.9933L23.483 22.8617L25.0114 24.3605C25.2277 24.5604 25.3863 24.7031 25.5161 24.7602C25.6458 24.8173 25.7756 24.8173 25.9054 24.7602C26.0351 24.7031 26.1937 24.5746 26.41 24.3891L26.5831 24.5604C26.3091 24.803 25.9486 25.1456 25.5016 25.5881C25.0258 26.0592 24.6798 26.4303 24.4635 26.673L24.2905 26.5017C24.4779 26.2876 24.6077 26.1306 24.6654 26.0021C24.723 25.8736 24.723 25.7452 24.6509 25.6167C24.5933 25.4882 24.4491 25.3169 24.2472 25.1171L22.9784 23.8752L18.1625 22.4763C17.8741 22.3906 17.6579 22.3621 17.5137 22.3764C17.3695 22.3906 17.2686 22.4335 17.1965 22.5048L17.0234 22.3335C17.2541 22.1337 17.5137 21.9053 17.7732 21.6341C18.3067 21.0917 18.696 20.7062 18.9123 20.4493L19.0853 20.6206C18.696 21.006 18.6095 21.3058 18.8258 21.5199C18.9123 21.6055 19.0276 21.6626 19.2007 21.7197L23.2523 22.9616L22.1853 19.8069C22.0267 19.3502 21.8681 19.0361 21.6951 18.8791C21.5365 18.7221 21.3635 18.6793 21.176 18.7364C20.9886 18.7935 20.7723 18.9362 20.5128 19.1789L20.3397 19.0076C20.6858 18.6935 21.003 18.3795 21.3346 18.0654Z" fill="#292F36"/>
<path d="M30.0584 12.3128C29.9719 12.4127 29.9286 12.5412 29.9575 12.6839C29.9863 12.8267 30.0584 13.0265 30.2026 13.2835L32.9854 18.3938C33.1296 18.6507 33.2449 18.822 33.3603 18.9219C33.4612 19.0218 33.591 19.0504 33.7208 19.0361C33.8505 19.0218 34.0524 18.9362 34.2975 18.8077L35.0617 18.3938C35.4943 18.1654 35.7971 17.9227 35.9557 17.68C36.1143 17.4374 36.1719 17.1661 36.1287 16.8378C36.0854 16.5095 35.9557 16.0956 35.725 15.5531L35.9701 15.4247C36.071 15.653 36.2152 15.9385 36.4026 16.2811C36.6189 16.6665 36.8785 17.0948 37.1957 17.5658C36.7199 17.7942 35.9124 18.2082 34.8022 18.8077C33.4756 19.5214 32.4663 20.0639 31.8031 20.4493L31.6877 20.2494C31.9328 20.1067 32.1059 19.9782 32.1924 19.8783C32.2789 19.7784 32.3221 19.6499 32.2933 19.5072C32.2645 19.3644 32.1924 19.1646 32.0482 18.9076L29.2365 13.7974C29.0924 13.5404 28.977 13.3691 28.8617 13.2692C28.7607 13.1693 28.631 13.1407 28.5012 13.155C28.357 13.1693 28.1696 13.2406 27.91 13.3691L27.8091 13.155C28.1119 13.0265 28.5589 12.7981 29.15 12.4698C29.7124 12.1701 30.1449 11.9274 30.4477 11.7418L30.5631 11.9417C30.3179 12.0844 30.1593 12.2129 30.0584 12.3128Z" fill="#292F36"/>
<path d="M47.6203 13.2263C47.7068 13.6545 47.8366 14.1399 47.9952 14.6823C47.4617 14.7679 46.5821 14.925 45.3421 15.1676C43.857 15.4531 42.7468 15.6815 41.9826 15.8528L41.9393 15.6244C42.2133 15.553 42.4151 15.4959 42.5305 15.4103C42.6458 15.3389 42.7179 15.2247 42.7323 15.0963C42.7468 14.9535 42.7323 14.7394 42.6747 14.4539L41.55 8.75837C41.4923 8.47288 41.4347 8.27303 41.3481 8.14456C41.2616 8.01609 41.1751 7.94472 41.0309 7.93044C40.9012 7.9019 40.6849 7.91617 40.4109 7.95899L40.3677 7.7306C41.1319 7.60213 42.2565 7.40229 43.7272 7.1168C44.8663 6.8884 45.6738 6.73138 46.1352 6.61719C46.1784 7.13107 46.2505 7.58786 46.3226 7.98754C46.3803 8.28731 46.438 8.5157 46.4956 8.687L46.2361 8.74409C46.0775 8.25876 45.9333 7.9019 45.8035 7.6735C45.6738 7.44511 45.4863 7.30237 45.27 7.23099C45.0393 7.15962 44.7365 7.15962 44.3184 7.24527L43.3524 7.43084C43.0784 7.48793 42.8765 7.54503 42.7612 7.61641C42.6458 7.68778 42.5737 7.7877 42.5449 7.93044C42.5305 8.07319 42.5449 8.28731 42.6026 8.5728L43.1361 11.285L43.9003 11.1279C44.2896 11.0566 44.5203 10.8853 44.6068 10.6283C44.6933 10.3714 44.7221 10.1287 44.7077 9.88606C44.6933 9.64339 44.6789 9.48637 44.6789 9.415L44.9384 9.3579C44.9817 9.74331 45.0393 10.1002 45.1114 10.4428L45.2268 10.9852C45.2989 11.3706 45.4286 11.913 45.6161 12.5982L45.3566 12.6553C45.3421 12.5982 45.2845 12.4269 45.1835 12.1129C45.0826 11.7988 44.9384 11.5847 44.7221 11.4563C44.5058 11.3278 44.2607 11.2992 43.9435 11.3563L43.1793 11.4991L43.7272 14.2541C43.7849 14.5396 43.8426 14.7394 43.9147 14.8679C43.9868 14.9821 44.0877 15.0534 44.2319 15.082C44.3617 15.0963 44.5779 15.082 44.8519 15.0249L45.7026 14.8536C46.1784 14.7537 46.5389 14.6252 46.7696 14.4539C47.0003 14.2826 47.1301 14.0399 47.1877 13.7402C47.2454 13.4404 47.2454 13.0122 47.2021 12.4555L47.4617 12.3984C47.5049 12.6125 47.5482 12.8837 47.6203 13.2263Z" fill="#292F36"/>
<path d="M37.9018 67.7408C37.2386 66.8558 36.6618 65.8851 36.1572 64.8145C35.6525 63.7439 35.2488 62.659 34.946 61.5456C34.2827 56.6495 34.2683 51.896 34.8883 47.2854C35.5083 42.6747 36.5176 38.1354 37.9018 33.6532C38.1325 33.1536 38.6372 32.9109 39.4158 32.9109C40.1944 32.9109 40.9586 33.0822 41.7372 33.4248C42.5158 33.7674 43.1502 34.2242 43.6549 34.7951C44.1596 35.3661 44.2749 35.9657 44.0009 36.5795C43.5684 37.493 43.1502 38.7349 42.7321 40.2766C42.314 41.8325 41.8958 43.5454 41.5209 45.4154C41.1316 47.2854 40.8 49.2552 40.5116 51.2965C40.2232 53.3378 40.007 55.3076 39.8772 57.1776C39.7474 59.0476 39.7186 60.7463 39.7907 62.2593C39.8628 63.7724 40.0935 64.9715 40.4828 65.8423C42.2995 63.4299 43.9577 60.9318 45.4717 58.3481C46.9856 55.7644 48.3987 53.1522 49.7252 50.4829C51.0517 47.8278 52.3206 45.1442 53.5173 42.4177C54.7141 39.7056 55.8964 37.022 57.0499 34.3812C57.6266 33.0394 58.2034 31.6262 58.7657 30.1416C59.3281 28.6428 60.0634 27.3724 61.0006 26.3018C61.3899 25.9592 61.6927 25.845 61.8946 25.9592C62.1109 26.0734 62.2551 26.2875 62.3271 26.6158C62.3992 26.9441 62.4425 27.2867 62.4425 27.6436C62.4425 28.0005 62.4425 28.286 62.4425 28.4715C62.1685 30.2273 61.9378 31.9688 61.7504 33.696C61.563 35.4232 61.1448 37.0791 60.5392 38.6921C59.5299 41.2187 58.5062 43.7167 57.4392 46.2148C56.3722 48.6985 55.2331 51.1538 54.022 53.5662C52.8108 55.9786 51.4843 58.3196 50.0856 60.5892C48.6726 62.8732 47.1442 65.0429 45.4717 67.0984C44.1596 68.74 42.8475 69.6107 41.5642 69.7107C40.2232 69.8248 39.0265 69.1539 37.9018 67.7408Z" fill="#292F36" stroke="white" stroke-miterlimit="10"/>
<path d="M61.7794 61.2601C61.0008 60.1895 60.2366 59.1046 59.4869 57.9912C58.7371 56.8778 58.3622 55.6645 58.3622 54.3227C58.3622 52.8381 58.7948 51.4249 59.6599 50.0974C60.525 48.7841 61.5199 47.7136 62.6446 46.9142C63.106 46.6144 63.5818 46.3575 64.0576 46.1719C64.5334 45.9863 65.0525 46.0006 65.6004 46.229C65.8311 46.3432 66.0762 46.4288 66.3213 46.4859C66.5665 46.543 66.7972 46.6144 66.9846 46.6858C67.1721 46.7572 67.3883 46.8714 67.619 47.0284C67.8497 47.1854 67.9651 47.3852 67.9651 47.6565C67.9651 48.7271 67.9939 49.5978 68.0516 50.2687C68.1093 50.9396 68.1958 51.5106 68.3111 51.9959C68.4265 52.4813 68.5418 52.8952 68.6572 53.2521C68.7725 53.6232 68.8879 54.0086 69.0032 54.4226C69.0753 54.808 69.0609 55.1363 68.9456 55.3933C68.8302 55.6645 68.5418 55.693 68.0804 55.5075C67.2297 55.2077 66.5953 54.5939 66.1916 53.666C65.7878 52.7382 65.4851 51.9103 65.2976 51.1394C65.2544 50.9824 65.1678 50.7255 65.0092 50.3401C64.8506 49.9547 64.7641 49.6834 64.7209 49.5407C64.4181 49.4693 64.0432 49.5692 63.625 49.8547C63.2069 50.1402 62.8176 50.5399 62.5004 51.0253C62.1688 51.5249 61.9525 52.0958 61.866 52.7525C61.765 53.4091 61.8948 54.0515 62.2408 54.7081C62.3995 54.9365 62.6157 55.222 62.9041 55.536C63.1925 55.8643 63.4809 56.1926 63.7692 56.5352C64.0576 56.8778 64.346 57.2204 64.6344 57.5344C64.9227 57.8485 65.1678 58.1197 65.3553 58.3053C65.586 58.5337 65.7446 58.6621 65.8167 58.6764C65.8888 58.6907 66.0906 58.6479 66.3934 58.5337C66.7827 58.3481 67.3739 58.0911 68.1669 57.7914C68.96 57.4916 69.7963 57.1776 70.6614 56.8778C71.5265 56.578 72.3628 56.3211 73.1558 56.107C73.9488 55.8929 74.5544 55.7929 74.987 55.7929C75.261 55.7929 75.4484 55.8929 75.5637 56.0784C75.6791 56.1926 75.6647 56.3497 75.5061 56.5352C75.3475 56.7208 75.1456 56.9206 74.9005 57.1062C74.6554 57.2918 74.3814 57.4631 74.1219 57.6201C73.8479 57.7771 73.6749 57.8628 73.6028 57.9056C72.9395 58.291 72.1177 58.7192 71.1084 59.2046C70.0991 59.6756 69.2339 60.1467 68.4986 60.6035C68.4265 60.6748 68.2823 60.7605 68.066 60.8319C67.8497 60.9032 67.6911 60.9889 67.5758 61.0603C68.0372 62.088 68.3688 62.9873 68.5562 63.7296C68.7437 64.4719 68.8158 65.1856 68.7581 65.885C68.7004 66.5702 68.5562 67.2697 68.3255 67.9834C68.0948 68.6971 67.7776 69.5108 67.4027 70.4243C66.8548 71.3094 66.3069 72.1516 65.7446 72.9509C65.1823 73.7503 64.5623 74.4783 63.8557 75.1349C63.1636 75.7916 62.3995 76.3055 61.592 76.6766C60.7846 77.062 59.8906 77.2476 58.9245 77.2476C58.3766 77.2476 57.8576 77.1762 57.3529 77.0477C56.8482 76.9193 56.4301 76.6338 56.0841 76.2198C55.1901 75.2634 54.6999 74.2214 54.5845 73.0937C54.4692 71.966 54.5701 70.8526 54.8729 69.7392C55.1036 69.054 55.392 68.4259 55.738 67.8407C56.5887 66.3847 57.5259 65.157 58.5497 64.1435C59.5878 63.1443 60.6548 62.1737 61.7794 61.2601ZM63.7548 63.8438C63.3222 64.272 62.7455 64.8716 62.0101 65.6567C61.2748 66.4418 60.5971 67.2982 59.9483 68.2118C59.3138 69.1254 58.7948 70.0389 58.391 70.9382C57.9873 71.8375 57.8864 72.6083 58.0738 73.265C58.8524 72.9224 59.6455 72.3514 60.4529 71.5663C61.2604 70.7812 61.9813 69.9247 62.6013 68.9826C63.2213 68.0405 63.6539 67.1126 63.899 66.1991C64.1441 65.2712 64.1009 64.4861 63.7548 63.8438Z" fill="#292F36" stroke="white" stroke-miterlimit="10"/>
<path d="M52.3782 84.499C34.3404 84.499 19.6621 69.9676 19.6621 52.1101C19.6621 34.2527 34.3404 19.7212 52.3782 19.7212C70.416 19.7212 85.0943 34.2527 85.0943 52.1101C85.0943 69.9676 70.416 84.499 52.3782 84.499ZM52.3782 21.1486C35.1334 21.1486 21.104 35.0378 21.104 52.1101C21.104 69.1825 35.1334 83.0716 52.3782 83.0716C69.623 83.0716 83.6524 69.1825 83.6524 52.1101C83.6524 35.0378 69.623 21.1486 52.3782 21.1486Z" fill="#292F36"/>
</g>
</svg>
