<svg width="42" height="41" viewBox="0 0 42 41" fill="none" xmlns="http://www.w3.org/2000/svg">
<path d="M0.336914 10.0081C0.336914 4.95863 4.43031 0.865234 9.47977 0.865234H32.5834C37.6328 0.865234 41.7262 4.95863 41.7262 10.0081V31.2663C41.7262 36.3158 37.6328 40.4092 32.5834 40.4092H9.47978C4.43032 40.4092 0.336914 36.3158 0.336914 31.2663V10.0081Z" fill="#FFD772"/>
<rect x="11.3081" y="13.6653" width="19.2" height="13.7143" rx="2.74286" fill="#C59419"/>
<path d="M18.5492 21.1517L16.1806 24.0591C15.694 24.6564 16.119 25.5509 16.8894 25.5509H27.7653C28.2703 25.5509 28.6796 25.1415 28.6796 24.6366V23.9835V22.2461C28.6796 22.0193 28.5953 21.8006 28.4432 21.6325L26.088 19.0306C25.7108 18.6138 25.0503 18.633 24.6979 19.071L22.2574 22.1041C21.905 22.5421 21.2445 22.5613 20.8673 22.1446L19.9358 21.1156C19.5601 20.7004 18.9028 20.7175 18.5492 21.1517Z" fill="#FFD772"/>
<circle cx="16.7939" cy="17.3222" r="1.82857" fill="#FFD772"/>
</svg>
