<svg width="42" height="41" viewBox="0 0 42 41" fill="none" xmlns="http://www.w3.org/2000/svg">
<path d="M0.59668 10.0081C0.59668 4.95863 4.69008 0.865234 9.73954 0.865234H32.8431C37.8926 0.865234 41.986 4.95863 41.986 10.0081V31.2663C41.986 36.3158 37.8926 40.4092 32.8431 40.4092H9.73954C4.69008 40.4092 0.59668 36.3158 0.59668 31.2663V10.0081Z" fill="#88A2FF"/>
<rect x="9.4834" y="13.6653" width="15.5429" height="12.8" rx="1.82857" fill="#365BDD"/>
<path d="M26.8529 21.2406C26.3879 20.8746 26.3879 20.1699 26.8529 19.8039L32.0034 15.7489C32.6032 15.2767 33.4833 15.7039 33.4833 16.4672L33.4833 24.5773C33.4833 25.3406 32.6032 25.7678 32.0034 25.2956L26.8529 21.2406Z" fill="#365BDD"/>
</svg>
