<svg width="207" height="166" viewBox="0 0 207 166" fill="none" xmlns="http://www.w3.org/2000/svg">
<line opacity="0.2" x1="49.0217" y1="165.949" x2="49.0216" y2="0.150879" stroke="black" stroke-width="1.07681" stroke-dasharray="4.31 6.46"/>
<line opacity="0.2" x1="156.153" y1="165.949" x2="156.153" y2="0.150879" stroke="black" stroke-width="1.07681" stroke-dasharray="4.31 6.46"/>
<line opacity="0.2" x1="27.7653" y1="165.949" x2="27.7653" y2="0.150879" stroke="black" stroke-width="1.07681" stroke-dasharray="4.31 6.46"/>
<line opacity="0.2" x1="113.215" y1="165.949" x2="113.215" y2="0.150879" stroke="black" stroke-width="1.07681" stroke-dasharray="4.31 6.46"/>
<line opacity="0.2" x1="6.50896" y1="165.949" x2="6.50895" y2="0.150879" stroke="black" stroke-width="1.07681" stroke-dasharray="4.31 6.46"/>
<line opacity="0.2" x1="70.7033" y1="165.949" x2="70.7033" y2="0.150879" stroke="black" stroke-width="1.07681" stroke-dasharray="4.31 6.46"/>
<line opacity="0.2" x1="91.9592" y1="165.949" x2="91.9591" y2="0.150879" stroke="black" stroke-width="1.07681" stroke-dasharray="4.31 6.46"/>
<line opacity="0.2" x1="177.409" y1="165.949" x2="177.409" y2="0.150879" stroke="black" stroke-width="1.07681" stroke-dasharray="4.31 6.46"/>
<line opacity="0.2" x1="134.472" y1="165.949" x2="134.472" y2="0.150879" stroke="black" stroke-width="1.07681" stroke-dasharray="4.31 6.46"/>
<line opacity="0.2" x1="198.666" y1="165.949" x2="198.666" y2="0.150879" stroke="black" stroke-width="1.07681" stroke-dasharray="4.31 6.46"/>
<path d="M2.37085 123.862C7.77635 123.691 13.5141 120.181 18.7954 116.951C19.6432 116.433 20.4813 115.914 21.3121 115.4C27.0704 111.837 32.4796 108.491 38.3557 106.857C41.2096 105.984 44.1967 105.519 47.2549 105.043C50.7468 104.499 54.3314 103.94 57.916 102.745C59.9951 102.109 62.1449 101.213 64.3173 100.309C68.5318 98.5535 72.8315 96.7628 76.8649 96.7628C81.1429 96.7628 85.1734 98.4275 89.2713 100.12C91.6143 101.088 93.9793 102.065 96.4252 102.745C102.538 104.988 109.262 104.988 115.374 99.7537C118.202 97.7093 121.031 94.7389 123.814 91.8162C127.646 87.7907 131.393 83.8558 134.934 82.5562C139.426 81.3076 143.644 83.5618 147.954 85.865C150.097 87.0099 152.262 88.167 154.495 88.9118C157.551 89.8464 160.76 89.8464 163.969 89.8464C167.178 89.8464 170.387 89.8464 173.444 90.7811C176.275 91.5682 179.106 93.0844 181.892 94.5761C185.721 96.6272 189.465 98.6321 193.004 98.6321C196.366 98.6321 199.575 97.1367 202.784 95.6412C203.149 95.4711 203.514 95.3009 203.88 95.1329" stroke="#CB5B66" stroke-width="4.57143" stroke-linecap="round"/>
<circle opacity="0.2" cx="134.585" cy="84.3254" r="17.8552" fill="#F39800"/>
<circle cx="134.585" cy="84.3251" r="9.35274" fill="#F39800"/>
</svg>
