<svg width="42" height="41" viewBox="0 0 42 41" fill="none" xmlns="http://www.w3.org/2000/svg">
<path d="M0.566895 10.0081C0.566895 4.95863 4.66029 0.865234 9.70975 0.865234H32.8134C37.8628 0.865234 41.9562 4.95863 41.9562 10.0081V31.2663C41.9562 36.3158 37.8628 40.4092 32.8134 40.4092H9.70976C4.6603 40.4092 0.566895 36.3158 0.566895 31.2663V10.0081Z" fill="#AEEA7F"/>
<path d="M14.755 20.6197H18.38V25.3572C17.9008 25.5156 17.4029 25.6426 16.8862 25.7385C16.3696 25.8301 15.7841 25.876 15.13 25.876C14.2216 25.876 13.4508 25.6968 12.8175 25.3385C12.1841 24.9801 11.7029 24.451 11.3737 23.751C11.0446 23.051 10.88 22.1906 10.88 21.1697C10.88 20.2114 11.0633 19.3822 11.43 18.6822C11.8008 17.9822 12.3404 17.4406 13.0487 17.0572C13.7612 16.6739 14.63 16.4822 15.655 16.4822C16.1383 16.4822 16.6154 16.5343 17.0862 16.6385C17.5571 16.7426 17.9841 16.8781 18.3675 17.0447L17.7237 18.5947C17.4446 18.4531 17.1258 18.3343 16.7675 18.2385C16.4091 18.1426 16.0341 18.0947 15.6425 18.0947C15.08 18.0947 14.5904 18.2239 14.1737 18.4822C13.7612 18.7406 13.4404 19.1031 13.2112 19.5697C12.9862 20.0322 12.8737 20.5781 12.8737 21.2072C12.8737 21.8031 12.955 22.3322 13.1175 22.7947C13.28 23.2531 13.5362 23.6135 13.8862 23.876C14.2362 24.1343 14.6925 24.2635 15.255 24.2635C15.53 24.2635 15.7612 24.251 15.9487 24.226C16.1404 24.1968 16.3196 24.1676 16.4862 24.1385V22.2322H14.755V20.6197ZM20.5612 25.751V16.6135H22.4987V25.751H20.5612ZM26.705 25.751H24.7987V16.6135H30.0362V18.201H26.705V20.5572H29.805V22.1385H26.705V25.751Z" fill="#577E39"/>
</svg>
