<svg width="42" height="41" viewBox="0 0 42 41" fill="none" xmlns="http://www.w3.org/2000/svg">
<path d="M0.0820312 10.0081C0.0820312 4.95863 4.17543 0.865234 9.22489 0.865234H32.3285C37.378 0.865234 41.4714 4.95863 41.4714 10.0081V31.2663C41.4714 36.3158 37.378 40.4092 32.3285 40.4092H9.2249C4.17544 40.4092 0.0820312 36.3158 0.0820312 31.2663V10.0081Z" fill="#F68DFF"/>
<path d="M23.845 10.025C23.9836 10.0519 24.1139 10.1099 24.2258 10.1945C24.3381 10.2783 24.429 10.3866 24.4913 10.5108C24.5536 10.6351 24.5857 10.7718 24.5849 10.9103V13.9246L17.1055 15.725L17.0981 15.7271C16.8369 15.7916 16.6683 15.997 16.6683 16.2499V23.605C16.6662 23.9515 16.5537 24.2886 16.3465 24.5692C16.1393 24.8497 15.8478 25.0596 15.513 25.1693L14.7412 25.4448L14.7277 25.4493C14.5256 25.5162 14.3137 25.5505 14.1004 25.5509C13.6926 25.5503 13.2955 25.4233 12.9656 25.188C12.7094 25.0082 12.5011 24.7704 12.3582 24.4949C12.2153 24.2194 12.142 23.9141 12.1446 23.605C12.1446 22.8448 12.5998 22.204 13.3027 21.9733L15.1405 21.3488L15.1448 21.3471C15.3833 21.2683 15.5374 21.0664 15.5374 20.8326V12.9919C15.5349 12.7434 15.6166 12.5012 15.7697 12.3034C15.9227 12.1055 16.1384 11.9631 16.3828 11.8987L23.4271 10.0398C23.5634 10.0032 23.7064 9.99819 23.845 10.025Z" fill="#C038CC"/>
<path d="M28.8307 15.5107C28.9693 15.5376 29.0996 15.5956 29.2115 15.6802C29.3238 15.764 29.4147 15.8723 29.477 15.9966C29.5393 16.1208 29.5714 16.2575 29.5706 16.396V19.4103L22.0912 21.2107L22.0838 21.2128C21.8226 21.2773 21.6541 21.4827 21.6541 21.7356V29.0907C21.6519 29.4372 21.5394 29.7743 21.3322 30.0549C21.125 30.3354 20.8336 30.5453 20.4987 30.655L19.7269 30.9305L19.7134 30.935C19.5113 31.0019 19.2995 31.0363 19.0861 31.0366C18.6784 31.036 18.2812 30.909 17.9513 30.6737C17.6951 30.4939 17.4868 30.2561 17.3439 29.9806C17.201 29.7051 17.1277 29.3998 17.1303 29.0907C17.1303 28.3305 17.5855 27.6897 18.2885 27.459L20.1262 26.8346L20.1305 26.8328C20.369 26.7541 20.5231 26.5521 20.5231 26.3183V18.4776C20.5206 18.2291 20.6023 17.987 20.7554 17.7891C20.9084 17.5912 21.1241 17.4488 21.3685 17.3844L28.4128 15.5255C28.5491 15.489 28.6921 15.4839 28.8307 15.5107Z" fill="#C038CC"/>
</svg>
