<svg width="40" height="40" viewBox="0 0 40 40" fill="none" xmlns="http://www.w3.org/2000/svg">
<path d="M0.325684 9.31839C0.325684 4.26893 4.41908 0.175537 9.46854 0.175537H30.7268C35.7762 0.175537 39.8696 4.26893 39.8696 9.31839V30.5766C39.8696 35.6261 35.7762 39.7195 30.7268 39.7195H9.46854C4.41908 39.7195 0.325684 35.6261 0.325684 30.5766V9.31839Z" fill="#470137"/>
<path d="M20.1828 26.8367H17.022L13.9863 21.8992L10.9506 26.8367H7.98633L12.3167 20.1045L8.26311 13.7831H11.3167L14.1292 18.4795L16.8881 13.7831H19.8703L15.772 20.2563L20.1828 26.8367ZM24.772 27.0152C23.6589 27.0152 22.7512 26.5807 22.0488 25.7117C21.3524 24.8367 21.0042 23.5539 21.0042 21.8635C21.0042 20.1551 21.3584 18.8635 22.0667 17.9885C22.775 17.1075 23.7006 16.667 24.8435 16.667C25.3197 16.667 25.7393 16.7325 26.1024 16.8635C26.4655 16.9944 26.778 17.17 27.0399 17.3902C27.3078 17.6105 27.5339 17.8575 27.7185 18.1313H27.8078C27.772 17.9408 27.7274 17.6611 27.6738 17.292C27.6262 16.917 27.6024 16.5331 27.6024 16.1402V12.9438H30.3345V26.8367H28.2453L27.7185 25.542H27.6024C27.4298 25.8158 27.2125 26.0658 26.9506 26.292C26.6947 26.5123 26.3881 26.6879 26.031 26.8188C25.6738 26.9498 25.2542 27.0152 24.772 27.0152ZM25.7274 24.8456C26.4714 24.8456 26.9953 24.6254 27.2988 24.1849C27.6084 23.7385 27.772 23.0688 27.7899 22.176V21.8813C27.7899 20.9111 27.6411 20.17 27.3435 19.6581C27.0459 19.1402 26.4923 18.8813 25.6828 18.8813C25.0816 18.8813 24.6113 19.1402 24.272 19.6581C23.9328 20.176 23.7631 20.923 23.7631 21.8992C23.7631 22.8754 23.9328 23.6105 24.272 24.1045C24.6173 24.5986 25.1024 24.8456 25.7274 24.8456Z" fill="#FF61F6"/>
</svg>
